<?xml version="1.0" encoding="utf-8"?>
<!-- Generator: Adobe Illustrator 16.0.0, SVG Export Plug-In . SVG Version: 6.00 Build 0)  -->
<!DOCTYPE svg PUBLIC "-//W3C//DTD SVG 1.1//EN" "http://www.w3.org/Graphics/SVG/1.1/DTD/svg11.dtd">
<svg version="1.1" id="Layer_3" xmlns="http://www.w3.org/2000/svg" xmlns:xlink="http://www.w3.org/1999/xlink" x="0px" y="0px"
	 width="23px" height="32px" viewBox="-3 -4 23 32" enable-background="new -3 -4 23 32" xml:space="preserve">
<g>
	<circle fill="#9A6B84" cx="8.5" cy="22.667" r="5.333"/>
	<circle fill="#EBD6E4" cx="6.5" cy="20.667" r="2"/>
	<polygon fill="#F5F5FB" points="8.5,-4 8.5,8 1.833,5.334 	"/>
	<polygon fill="#C6D2DD" points="1.833,5.334 7.167,16 8.5,17.334 8.5,8 	"/>
	<polygon fill="#C6D2DD" points="8.5,-4 8.5,8 15.166,5.334 	"/>
	<polygon fill="#A0B4C6" points="15.166,5.334 9.834,16 8.5,17.334 8.5,8 	"/>
	<polygon fill="#F5F5FB" points="-0.833,6.667 -0.833,12 1.833,12 	"/>
	<polygon fill="#C6D2DD" points="-0.833,12 4.5,17.334 5.833,17.334 1.833,12 	"/>
	<polygon fill="#A0B4C6" points="1.833,12 5.833,17.334 7.167,16 4.5,9.334 	"/>
	<polygon fill="#C6D2DD" points="-0.833,6.667 4.5,9.334 1.833,12 	"/>
	<polygon fill="#C6D2DD" points="17.834,6.667 17.834,12 15.166,12 	"/>
	<polygon fill="#A0B4C6" points="17.834,12 12.5,17.334 11.166,17.334 15.166,12 	"/>
	<polygon fill="#C6D2DD" points="15.166,12 11.166,17.334 9.834,16 12.5,9.334 	"/>
	<polygon fill="#F5F5FB" points="17.834,6.667 12.5,9.334 15.166,12 	"/>
</g>
</svg>
