<?xml version="1.0" encoding="utf-8"?>
<!-- Generator: Adobe Illustrator 16.0.0, SVG Export Plug-In . SVG Version: 6.00 Build 0)  -->
<!DOCTYPE svg PUBLIC "-//W3C//DTD SVG 1.1//EN" "http://www.w3.org/Graphics/SVG/1.1/DTD/svg11.dtd">
<svg version="1.1" id="Layer_4" xmlns="http://www.w3.org/2000/svg" xmlns:xlink="http://www.w3.org/1999/xlink" x="0px" y="0px"
	 width="32px" height="32px" viewBox="-4 -4 32 32" enable-background="new -4 -4 32 32" xml:space="preserve">
<g>
	<polygon fill="#E9CFAF" points="12,19.334 12,-0.667 8,7.333 5.333,10 5.333,11.334 8,14 6.666,19.334 2.666,19.334 4,16.667 
		2.666,15.334 0.666,10 -1.334,15.334 -2.667,16.667 -1.334,19.334 -4,19.334 -4,24.667 12,24.667 	"/>
	<polygon fill="#7E5E33" points="12,19.334 12,-0.667 16,7.333 18.666,10 18.666,11.334 16,14 17.333,19.334 21.333,19.334 
		20,16.667 21.333,15.334 23.333,10 25.333,15.334 26.666,16.667 25.333,19.334 28,19.334 28,24.667 12,24.667 	"/>
	<polygon fill="#C18F5A" points="10.666,2 12,3.333 13.333,2 12,-0.667 	"/>
	<polygon fill="#C18F5A" points="21.333,19.334 21.333,24.667 18.666,19.334 	"/>
	<polygon fill="#C18F5A" points="10.666,14 8,14 5.333,11.334 5.333,10 8,7.333 10.666,2 9.333,10 10.666,10 	"/>
	<polygon fill="#C18F5A" points="2.666,19.334 5.333,24.667 2.666,24.667 	"/>
	<polygon fill="#C18F5A" points="-2.667,19.334 0,24.667 -4,24.667 -4,19.334 	"/>
	<polygon fill="#C18F5A" points="8,19.334 10.666,24.667 8,24.667 	"/>
</g>
</svg>
