<?xml version="1.0" encoding="utf-8"?>
<!-- Generator: Adobe Illustrator 16.0.0, SVG Export Plug-In . SVG Version: 6.00 Build 0)  -->
<!DOCTYPE svg PUBLIC "-//W3C//DTD SVG 1.1//EN" "http://www.w3.org/Graphics/SVG/1.1/DTD/svg11.dtd">
<svg version="1.1" id="Layer_1" xmlns="http://www.w3.org/2000/svg" xmlns:xlink="http://www.w3.org/1999/xlink" x="0px" y="0px"
	 width="32px" height="32px" viewBox="-4 -4 32 32" enable-background="new -4 -4 32 32" xml:space="preserve">
<g>
	<rect x="6" y="8" fill="#23374C" width="9.334" height="20"/>
	<rect x="6" y="-2.667" fill="#23374C" width="9.334" height="8"/>
	<rect x="0.667" y="8" fill="#9FD0EA" width="5.333" height="20"/>
	<rect x="0.667" y="-2.667" fill="#9FD0EA" width="5.333" height="8"/>
	<rect x="15.334" y="-2.667" fill="#396F8F" width="9.334" height="8"/>
	<rect x="15.334" y="8" fill="#396F8F" width="9.334" height="20"/>
	<rect x="-2" y="-2.667" fill="#396F8F" width="2.667" height="8"/>
	<rect x="-2" y="8" fill="#396F8F" width="2.667" height="20"/>
	<rect x="-0.667" y="5.333" fill="#BBDBEE" width="24" height="2.667"/>
	<polygon fill="#90B2C2" points="23.334,-4 11.167,-4 11.167,-2.667 22,-2.667 22,5.333 23.334,8 23.334,24 22,25.333 22,28 
		23.334,28 23.334,25.333 24.668,24 24.668,8 23.334,5.333 	"/>
	<polygon fill="#BBDBEE" points="23.334,28 26,28 26,-4 23.334,-4 23.334,5.333 24.668,8 24.668,24 23.334,25.333 	"/>
</g>
</svg>
