<?xml version="1.0" encoding="utf-8"?>
<!-- Generator: Adobe Illustrator 16.0.0, SVG Export Plug-In . SVG Version: 6.00 Build 0)  -->
<!DOCTYPE svg PUBLIC "-//W3C//DTD SVG 1.1//EN" "http://www.w3.org/Graphics/SVG/1.1/DTD/svg11.dtd">
<svg version="1.1" id="Layer_2" xmlns="http://www.w3.org/2000/svg" xmlns:xlink="http://www.w3.org/1999/xlink" x="0px" y="0px"
	 width="32px" height="32px" viewBox="-4 -4 32 32" enable-background="new -4 -4 32 32" xml:space="preserve">
<g>
	<polygon fill="#FEC04C" points="11.999,-4 11.999,4 5,5 	"/>
	<polygon fill="#FEC04C" points="11.999,-4 11.999,4 19,5 	"/>
	<polygon fill="#AD4325" points="11.999,28 11.999,20 19,19 	"/>
	<polygon fill="#AD4325" points="11.999,28 11.999,20 5,19 	"/>
	<polygon fill="#F1662D" points="-4,12.002 4,12.002 5,19 	"/>
	<polygon fill="#F7932E" points="-4,12.002 4,12.002 5,5 	"/>
	<polygon fill="#F1662D" points="28,12.002 20,12.002 19,19 	"/>
	<polygon fill="#F7932E" points="28,12.002 20,12.002 19,5 	"/>
	<polygon fill="#FEC04C" points="24,0 11.999,4 15.999,8.002 	"/>
	<polygon fill="#F7932E" points="24,0 20,12.002 15.999,8.002 	"/>
	<polygon fill="#AD4325" points="0,24 11.999,20 8.002,16 	"/>
	<polygon fill="#F1662D" points="0,24 4,12.002 8.002,16 	"/>
	<polygon fill="#AD4325" points="24,24 11.999,20 15.999,16 	"/>
	<polygon fill="#F1662D" points="24,24 20,12.002 15.999,16 	"/>
	<polygon fill="#FEC04C" points="0,0 11.999,4 8.002,8.002 	"/>
	<polygon fill="#F7932E" points="0,0 4,12.002 8.002,8.002 	"/>
	<circle fill="#F1662D" cx="12" cy="12" r="11.313"/>
	<path fill="#F7932E" d="M5.029,11.002c-0.045,0.328-0.102,0.656-0.1,1c0,3.904,3.167,7.07,7.069,7.068
		c3.907,0.002,7.074-3.164,7.071-7.068c0.003-0.344-0.052-0.672-0.099-1c-1.923,1.506-4.339,2.414-6.972,2.414
		S6.953,12.508,5.029,11.002z"/>
	<path fill="#FEC04C" d="M11.999,4.93c-3.563,0-6.479,2.641-6.97,6.072c1.924,1.506,4.338,2.414,6.97,2.414
		c2.634,0,5.048-0.908,6.973-2.414C18.479,7.573,15.564,4.928,11.999,4.93z"/>
</g>
</svg>
