<?xml version="1.0" encoding="utf-8"?>
<!-- Generator: Adobe Illustrator 16.0.0, SVG Export Plug-In . SVG Version: 6.00 Build 0)  -->
<!DOCTYPE svg PUBLIC "-//W3C//DTD SVG 1.1//EN" "http://www.w3.org/Graphics/SVG/1.1/DTD/svg11.dtd">
<svg version="1.1" id="Layer_1" xmlns="http://www.w3.org/2000/svg" xmlns:xlink="http://www.w3.org/1999/xlink" x="0px" y="0px"
	 width="32px" height="32px" viewBox="-4 -4 32 32" enable-background="new -4 -4 32 32" xml:space="preserve">
<g id="Layer_4">
	<rect x="17.333" y="12.666" fill="#171820" width="5.334" height="1.334"/>
	<rect x="17.333" y="11.333" fill="#171820" width="5.334" height="1.333"/>
	<rect x="17.333" y="10" fill="#171820" width="8" height="1.334"/>
	<rect x="25.333" y="10.167" fill="#767F90" width="1.334" height="1"/>
	<rect x="26.667" y="10.167" fill="#F3FAFD" width="1.333" height="1"/>
	<rect x="25.333" y="11.5" fill="#F3FAFD" width="1.334" height="1"/>
	<rect x="24" y="12.834" fill="#F3FAFD" width="1.333" height="1"/>
	<rect x="22.667" y="11.5" fill="#767F90" width="2.666" height="1"/>
	<rect x="22.667" y="12.834" fill="#767F90" width="1.333" height="1"/>
	<path fill="#495059" d="M24,4.667H-2.667c-0.38,0-0.741,0.161-0.993,0.444c-0.253,0.282-0.373,0.66-0.332,1.035l1.333,12
		c0.076,0.676,0.646,1.188,1.326,1.188H12c0.354,0,0.692-0.141,0.942-0.391l12-12c0.382-0.382,0.496-0.955,0.289-1.453
		C25.026,4.991,24.539,4.667,24,4.667L24,4.667z"/>
	<polygon fill="#AAB4CB" points="12,18 -1.333,18 -1.333,6 24,6 	"/>
	<path fill="#25A3B1" d="M13.333,15.334c-1.333,1.332-2.666,1.332-2.666,1.332H1.333L0,7.333h21.333
		C21.333,7.333,14.667,14,13.333,15.334z"/>
	<polygon fill="#3ABDAF" points="8,7.333 8,15.334 13.333,15.334 21.333,7.333 	"/>
</g>
<g id="Layer_1_1_">
</g>
</svg>
