<?xml version="1.0" encoding="utf-8"?>
<!-- Generator: Adobe Illustrator 16.0.0, SVG Export Plug-In . SVG Version: 6.00 Build 0)  -->
<!DOCTYPE svg PUBLIC "-//W3C//DTD SVG 1.1//EN" "http://www.w3.org/Graphics/SVG/1.1/DTD/svg11.dtd">
<svg version="1.1" id="Layer_1" xmlns="http://www.w3.org/2000/svg" xmlns:xlink="http://www.w3.org/1999/xlink" x="0px" y="0px"
	 width="32px" height="32px" viewBox="-4 -4 32 32" enable-background="new -4 -4 32 32" xml:space="preserve">
<g id="Layer_4">
	<g>
		<rect x="17.334" y="12.666" fill="#2A5533" width="5.333" height="1.334"/>
		<rect x="17.334" y="11.333" fill="#2A5533" width="5.333" height="1.333"/>
		<rect x="17.334" y="10" fill="#2A5533" width="8" height="1.334"/>
		<rect x="25.334" y="10.167" fill="#3CB54A" width="1.333" height="1"/>
		<rect x="26.667" y="10.167" fill="#F3FAFD" width="1.333" height="1"/>
		<rect x="25.334" y="11.5" fill="#F3FAFD" width="1.333" height="1"/>
		<rect x="24" y="12.834" fill="#F3FAFD" width="1.334" height="1"/>
		<rect x="22.667" y="11.5" fill="#3CB54A" width="2.667" height="1"/>
		<rect x="22.667" y="12.834" fill="#3CB54A" width="1.333" height="1"/>
		<path fill="#387351" d="M24,4.667H-2.666c-0.381,0-0.742,0.161-0.994,0.444c-0.253,0.282-0.373,0.66-0.332,1.035l1.334,12
			c0.076,0.676,0.646,1.188,1.325,1.188H12c0.354,0,0.693-0.141,0.943-0.391l12-12c0.381-0.382,0.496-0.955,0.289-1.453
			C25.026,4.991,24.539,4.667,24,4.667L24,4.667z"/>
		<polygon fill="#88C4AF" points="12,18 -1.333,18 -1.333,6 24,6 		"/>
		<path fill="#8EBA3F" d="M13.334,15.334c-1.334,1.332-2.667,1.332-2.667,1.332H1.334L0,7.333h21.334
			C21.334,7.333,14.667,14,13.334,15.334z"/>
		<polygon fill="#BDB442" points="8,7.333 8,15.334 13.334,15.334 21.334,7.333 		"/>
	</g>
</g>
<g id="Layer_1_1_">
</g>
</svg>
