<?xml version="1.0" encoding="utf-8"?>
<!-- Generator: Adobe Illustrator 16.0.0, SVG Export Plug-In . SVG Version: 6.00 Build 0)  -->
<!DOCTYPE svg PUBLIC "-//W3C//DTD SVG 1.1//EN" "http://www.w3.org/Graphics/SVG/1.1/DTD/svg11.dtd">
<svg version="1.1" xmlns="http://www.w3.org/2000/svg" xmlns:xlink="http://www.w3.org/1999/xlink" x="0px" y="0px" width="330px"
	 height="330px" viewBox="0 0 330 330" enable-background="new 0 0 330 330" xml:space="preserve">
<filter  id="shadow">
	<feOffset  dy="0" dx="0" in="SourceAlpha" result="offOut"></feOffset>
	<feGaussianBlur  in="offOut" stdDeviation="7" result="blurOut"></feGaussianBlur>
	<feBlend  in="SourceGraphic" in2="blurOut" mode="normal"></feBlend>
</filter>
<g id="Layer_1">
	<g id="Layer_1_1_">
		<g id="Layer_2">
			<circle fill="#7A9C26" cx="165" cy="165" r="165"/>
		</g>
	</g>
	<g id="Layer_2_1_" filter="url(#shadow)">
		<g>
			<g>
				<g>
					<path fill="#FFFFFF" d="M151.23,152.349c-15.982-3.818-29.47-14.125-37.528-27.965c-15.475,13.999-25.2,34.235-25.2,56.745
						c0,30.604,17.971,57.013,43.936,69.244C132.438,250.372,174.17,212.628,151.23,152.349z"/>
					<path fill="#FFFFFF" d="M178.771,152.349c15.98-3.818,29.473-14.125,37.527-27.965c15.477,13.999,25.199,34.235,25.199,56.745
						c0,30.604-17.975,57.013-43.939,69.244C197.564,250.372,155.834,212.628,178.771,152.349z"/>
					<path fill="#FFFFFF" d="M204.984,92.314c2.588-3.58,1.783-8.582-1.797-11.17s-8.582-1.783-11.17,1.797l-16.229,22.449
						c-3.523-0.5-7.125-0.764-10.79-0.764c-3.663,0-7.264,0.264-10.788,0.764l-16.229-22.449c-2.587-3.58-7.587-4.385-11.17-1.797
						c-3.581,2.588-4.385,7.59-1.796,11.17l12.575,17.396c-4.723,1.817-9.224,4.081-13.444,6.752
						c7.817,14.567,23.195,24.499,40.853,24.499c17.658,0,33.035-9.932,40.853-24.499c-4.221-2.671-8.723-4.935-13.441-6.752
						L204.984,92.314z"/>
				</g>
			</g>
		</g>
	</g>
</g>
<g id="Layer_2_2_">
</g>
</svg>
