<?xml version="1.0" encoding="utf-8"?>
<!-- Generator: Adobe Illustrator 16.0.0, SVG Export Plug-In . SVG Version: 6.00 Build 0)  -->
<!DOCTYPE svg PUBLIC "-//W3C//DTD SVG 1.1//EN" "http://www.w3.org/Graphics/SVG/1.1/DTD/svg11.dtd">
<svg version="1.1" id="Layer_2_2_" xmlns="http://www.w3.org/2000/svg" xmlns:xlink="http://www.w3.org/1999/xlink" x="0px" y="0px"
	 width="330px" height="330px" viewBox="0 0 330 330" enable-background="new 0 0 330 330" xml:space="preserve">
<filter  id="shadow">
	<feOffset  dy="0" dx="0" in="SourceAlpha" result="offOut"></feOffset>
	<feGaussianBlur  in="offOut" stdDeviation="7" result="blurOut"></feGaussianBlur>
	<feBlend  in="SourceGraphic" in2="blurOut" mode="normal"></feBlend>
</filter>
<g id="Layer_1_1_">
	<g id="Layer_2">
		<circle fill="#51525E" cx="165" cy="165" r="165"/>
	</g>
</g>
<path fill="none" d="M227.5,165c0-34.462-28.037-62.5-62.5-62.5v125C199.463,227.5,227.5,199.463,227.5,165z"/>
<g filter="url(#shadow)">
	<path fill="none" d="M165,102.5v125c34.463,0,62.5-28.037,62.5-62.5C227.5,130.538,199.463,102.5,165,102.5z"/>
	<path fill="#FFFFFF" d="M165,82.5c-45.563,0-82.5,36.937-82.5,82.5s36.937,82.5,82.5,82.5s82.5-36.937,82.5-82.5
		S210.563,82.5,165,82.5z M165,227.5v-125c34.463,0,62.5,28.038,62.5,62.5C227.5,199.463,199.463,227.5,165,227.5z"/>
</g>
</svg>
