<?xml version="1.0" encoding="utf-8"?>
<!-- Generator: Adobe Illustrator 16.0.0, SVG Export Plug-In . SVG Version: 6.00 Build 0)  -->
<!DOCTYPE svg PUBLIC "-//W3C//DTD SVG 1.1//EN" "http://www.w3.org/Graphics/SVG/1.1/DTD/svg11.dtd">
<svg version="1.1" id="Layer_1" xmlns="http://www.w3.org/2000/svg" xmlns:xlink="http://www.w3.org/1999/xlink" x="0px" y="0px"
	 width="330px" height="330px" viewBox="0 0 330 330" enable-background="new 0 0 330 330" xml:space="preserve">
<filter  id="shadow">
	<feOffset  dy="0" dx="0" in="SourceAlpha" result="offOut"></feOffset>
	<feGaussianBlur  in="offOut" stdDeviation="7" result="blurOut"></feGaussianBlur>
	<feBlend  mode="normal" in="SourceGraphic" in2="blurOut"></feBlend>
</filter>
<g id="Layer_1_1_">
	<g id="Layer_2_1_">
		<g id="Layer_2">
			<circle fill="#075A96" cx="165" cy="165" r="165"/>
		</g>
	</g>
</g>
<g filter="url(#shadow)">
	<path fill="#FFFFFF" d="M160.022,85.024l20.605-51.571L76.926,137.156h3.815h56.544h21.527l-0.009,0.022l0.009-0.022
		c0,0,1.309-0.009,3.763-0.025c0.285,0.016,0.605,0.03,0.959,0.033c0.178-0.001,0.365-0.001,0.558-0.002
		c0.168-0.014,0.517,0.035,0.782,0.048c0.577,0.049,1.202,0.069,1.864,0.132c0.658,0.078,1.361,0.161,2.104,0.249
		c2.958,0.414,6.506,1.275,10.44,2.798c3.938,1.511,8.207,3.842,12.396,7.138c4.129,3.346,8.161,7.667,11.407,12.978
		c3.238,5.308,5.646,11.593,6.649,18.521l0.191,1.304c0.053,0.438,0.078,0.88,0.123,1.321l0.127,1.332l0.008,0.082
		c0.017-1.045,0.006-0.221,0.01-0.424l0.007,0.237l0.01,0.474l0.019,0.948l0.041,1.899l-0.021,1.089l0.004,1.099l-0.092,1.356
		c-0.224,3.635-0.875,7.293-1.938,10.889c-2.125,7.19-5.996,14.101-11.211,19.97c-5.212,5.867-11.693,10.746-18.914,14.135
		c-3.609,1.693-7.396,3.037-11.295,3.986c-3.928,0.957-7.823,1.531-12.09,1.695c-0.447,0.021-0.857,0.07-1.342,0.075l-1.496-0.009
		c-1.003,0.02-1.994-0.041-2.986-0.104c-1-0.025-1.984-0.13-2.971-0.23c-0.995-0.07-1.967-0.232-2.944-0.379
		c-3.899-0.619-7.715-1.58-11.355-2.889c-7.288-2.604-13.87-6.494-19.391-10.998c-5.5-4.531-9.964-9.641-13.36-14.669
		c-1.715-2.509-3.158-5-4.406-7.381c-0.622-1.192-1.14-2.373-1.685-3.498c-0.471-1.144-0.932-2.241-1.385-3.291
		c-1.678-4.231-2.553-7.774-3.211-10.202c-0.542-2.465-0.831-3.779-0.831-3.779s-0.249,1.319-0.627,3.854
		c-0.295,2.532-0.678,6.298-0.494,11.183c0.194,4.873,1.014,10.854,3.03,17.586c2.021,6.72,5.429,14.104,10.585,21.432
		c5.202,7.26,12.226,14.413,21.164,20.218c4.459,2.897,9.371,5.479,14.678,7.532c1.327,0.511,2.666,1.031,4.043,1.457
		c1.371,0.453,2.755,0.91,4.173,1.267c1.413,0.384,2.84,0.757,4.293,1.04c0.726,0.152,1.453,0.305,2.184,0.458
		c0.746,0.146,1.58,0.257,2.371,0.38c5.658,0.944,11.938,1.301,18.171,0.938c6.265-0.366,12.621-1.446,18.854-3.282
		c12.474-3.675,24.322-10.482,34.173-19.591c9.764-9.195,17.579-20.618,22.518-33.12c2.464-6.246,4.236-12.734,5.328-19.262
		l0.394-2.447c0.112-0.88,0.211-1.813,0.307-2.717c0.09-0.905,0.178-1.811,0.268-2.715l0.133-1.896l0.066-0.945l0.035-0.473
		l0.016-0.234c0.006-0.283-0.002,0.463,0.016-0.662l0.003-0.151c0.012-0.813,0.022-1.628,0.032-2.438
		c0.004-0.813,0.023-1.623,0.009-2.433c-0.029-0.812-0.062-1.622-0.091-2.428c-0.534-12.942-3.83-25.444-9.018-36.318
		c-2.584-5.447-5.627-10.506-8.975-15.118c-3.355-4.608-7.023-8.757-10.834-12.459c-7.67-7.36-15.896-12.901-23.707-16.807
		c-7.822-3.911-15.166-6.283-21.313-7.708c-1.548-0.321-3.011-0.625-4.388-0.91c-1.383-0.254-2.688-0.438-3.899-0.629
		c-0.632-0.087-1.142-0.19-1.807-0.251c-0.641-0.064-1.25-0.125-1.836-0.184c-1.172-0.104-2.239-0.198-3.192-0.283
		C161.486,84.796,160.022,85.024,160.022,85.024z M143.516,116.061c-5.711,5.706-14.965,5.708-20.67,0l20.67-20.671
		C149.224,101.099,149.224,110.353,143.516,116.061z"/>
</g>
</svg>
