<?xml version="1.0" encoding="utf-8"?>
<!-- Generator: Adobe Illustrator 16.0.0, SVG Export Plug-In . SVG Version: 6.00 Build 0)  -->
<!DOCTYPE svg PUBLIC "-//W3C//DTD SVG 1.1//EN" "http://www.w3.org/Graphics/SVG/1.1/DTD/svg11.dtd">
<svg version="1.1" id="Layer_1" xmlns="http://www.w3.org/2000/svg" xmlns:xlink="http://www.w3.org/1999/xlink" x="0px" y="0px"
	 width="330px" height="330px" viewBox="0 0 330 330" enable-background="new 0 0 330 330" xml:space="preserve">
<filter  id="shadow">
	<feOffset  dy="0" dx="0" in="SourceAlpha" result="offOut"></feOffset>
	<feGaussianBlur  in="offOut" stdDeviation="7" result="blurOut"></feGaussianBlur>
	<feBlend  in="SourceGraphic" in2="blurOut" mode="normal"></feBlend>
</filter>
<g id="Layer_1_1_">
	<g id="Layer_2_1_">
		<g id="Layer_2">
			<circle fill="#075A96" cx="165" cy="165" r="165"/>
		</g>
	</g>
</g>
<g filter="url(#shadow)">
	<path fill="#FFFFFF" d="M90.051,178.994c0,111.256,96.437,120.243,138.392,78.287c32.219-32.219,32.219-84.454,0.001-116.672
		c-12.497-12.497-28.01-20.124-44.194-22.926V49.587L77.392,156.445l4.32,0.001h64.021l24.374-0.001l-0.011,0.026
		c13.608-0.003,21.776,4.136,30.063,12.422c16.57,16.571,16.569,43.532,0,60.104C183.59,245.569,145.5,259.25,90.051,178.994
		 M152.787,132.562c-6.465,6.461-16.943,6.463-23.402-0.001l23.402-23.405C159.249,115.62,159.249,126.099,152.787,132.562z"/>
</g>
</svg>
