<?xml version="1.0" encoding="utf-8"?>
<!-- Generator: Adobe Illustrator 16.0.0, SVG Export Plug-In . SVG Version: 6.00 Build 0)  -->
<!DOCTYPE svg PUBLIC "-//W3C//DTD SVG 1.1//EN" "http://www.w3.org/Graphics/SVG/1.1/DTD/svg11.dtd">
<svg version="1.1" id="Layer_1" xmlns="http://www.w3.org/2000/svg" xmlns:xlink="http://www.w3.org/1999/xlink" x="0px" y="0px"
	 width="330px" height="330px" viewBox="0 0 330 330" enable-background="new 0 0 330 330" xml:space="preserve">
<defs>
	<filter id="shadow">
		<feOffset result="offOut" in="SourceAlpha" dx="0" dy="0" />
		<feGaussianBlur result="blurOut" in="offOut" stdDeviation="7" />
		<feBlend in="SourceGraphic" in2="blurOut" mode="normal" />
	</filter>
</defs>
<g id="Layer_1_1_">
	<g id="Layer_2">
		<circle fill="#c6ae4a" cx="165" cy="165" r="165"/>
	</g>
</g>
<g id="Layer_2_1_" filter="url(#shadow)">
	<path fill="#FFFFFF" d="M224.254,170.46l-28.23-91.857c-0.902-2.938-3.617-4.943-6.691-4.943h-58.023
		c-2.221,0-4.31,1.055-5.63,2.841c-1.32,1.787-1.714,4.093-1.061,6.216l15.865,51.623h-28.047c-2.64,0-5.056,1.484-6.247,3.841
		s-0.956,5.182,0.61,7.309l79.5,108c1.357,1.845,3.474,2.853,5.642,2.853c1.042,0,2.099-0.233,3.085-0.72
		c3.042-1.495,4.574-4.955,3.641-8.213l-19.487-67.891h38.387c2.222,0,4.312-1.054,5.63-2.841S224.908,172.583,224.254,170.46z"/>
</g>
</svg>
