<?xml version="1.0" encoding="utf-8"?>
<!-- Generator: Adobe Illustrator 16.0.0, SVG Export Plug-In . SVG Version: 6.00 Build 0)  -->
<!DOCTYPE svg PUBLIC "-//W3C//DTD SVG 1.1//EN" "http://www.w3.org/Graphics/SVG/1.1/DTD/svg11.dtd">
<svg version="1.1" xmlns="http://www.w3.org/2000/svg" xmlns:xlink="http://www.w3.org/1999/xlink" x="0px" y="0px" width="330px"
	 height="330px" viewBox="0 0 330 330" enable-background="new 0 0 330 330" xml:space="preserve">
<defs>
	<filter id="shadow">
		<feOffset result="offOut" in="SourceAlpha" dx="0" dy="0" />
		<feGaussianBlur result="blurOut" in="offOut" stdDeviation="7" />
		<feBlend in="SourceGraphic" in2="blurOut" mode="normal" />
	</filter>
</defs>
<g id="Layer_1">
	<g id="Layer_2">
		<circle fill="#cc8bc0" cx="165" cy="165" r="165"/>
	</g>
</g>
<g id="Layer_2_1_" filter="url(#shadow)">
	<path fill="#FFFFFF" d="M258.621,161.031l-43.994-23.51l7.18-23.717c0.481-1.588,0.049-3.312-1.125-4.486s-2.901-1.606-4.485-1.125
		l-23.717,7.181l-23.511-43.995C168.187,69.915,166.66,69,165,69c-1.661,0-3.186,0.915-3.969,2.379l-23.51,43.995l-23.717-7.181
		c-1.585-0.48-3.312-0.048-4.486,1.125c-1.173,1.174-1.605,2.898-1.125,4.486l7.181,23.717l-43.995,23.51
		C69.915,161.814,69,163.339,69,165c0,1.66,0.915,3.187,2.379,3.969l43.995,23.511l-7.181,23.717
		c-0.48,1.588-0.048,3.313,1.125,4.485c1.173,1.174,2.898,1.605,4.486,1.125l23.717-7.18l23.51,43.994
		c0.783,1.465,2.308,2.379,3.969,2.379c1.66,0,3.187-0.914,3.969-2.379l23.511-43.994l23.717,7.18
		c1.586,0.48,3.312,0.049,4.485-1.125c1.174-1.173,1.606-2.897,1.125-4.485l-7.18-23.717l43.994-23.511
		C260.086,168.187,261,166.66,261,165C261,163.339,260.086,161.814,258.621,161.031z M175.25,175.25l-10.25,19l-10.25-19l-19-10.25
		l19-10.25l10.25-19l10.25,19l19,10.25L175.25,175.25z"/>
</g>
</svg>
