<?xml version="1.0" encoding="utf-8"?>
<!-- Generator: Adobe Illustrator 16.0.0, SVG Export Plug-In . SVG Version: 6.00 Build 0)  -->
<!DOCTYPE svg PUBLIC "-//W3C//DTD SVG 1.1//EN" "http://www.w3.org/Graphics/SVG/1.1/DTD/svg11.dtd">
<svg version="1.1" xmlns="http://www.w3.org/2000/svg" xmlns:xlink="http://www.w3.org/1999/xlink" x="0px" y="0px" width="330px"
	 height="330px" viewBox="0 0 330 330" enable-background="new 0 0 330 330" xml:space="preserve">
<defs>
	<filter id="shadow">
		<feOffset result="offOut" in="SourceAlpha" dx="0" dy="0" />
		<feGaussianBlur result="blurOut" in="offOut" stdDeviation="7" />
		<feBlend in="SourceGraphic" in2="blurOut" mode="normal" />
	</filter>
</defs>
<g id="Layer_1">
	<g id="Layer_2">
		<circle fill="#4b9852" cx="165" cy="165" r="165"/>
	</g>
</g>
<g id="Layer_2_1_" filter="url(#shadow)">
	<path fill="none" d="M173.675,188.867l-1.388-24.342l-3.267,3.607c-0.066,0.074-0.166,0.118-0.271,0.118s-0.203-0.044-0.271-0.118
		l-3.257-3.596l-1.384,24.34l4.911,3.154L173.675,188.867z"/>
	<polygon fill="none" points="171.689,154.056 168.75,102.5 165.818,154.061 168.75,155.805 	"/>
	<path fill="#FFFFFF" d="M229.519,84.48c-9.542-7.243-105.721,8.003-132.225,42.917c-24.828,32.706-18.823,76.37,10.737,103.547
		l30.705-36.005l-2.048-42.108c-0.012-0.247,0.158-0.465,0.4-0.514c0.242-0.048,0.483,0.087,0.569,0.318l11.15,30.495l15.819-18.551
		l-2.546-29.333c-0.014-0.167,0.097-0.311,0.263-0.337c0.165-0.027,0.335,0.071,0.4,0.229l8.69,21.458l33.511-39.295l-28.831,42.841
		l22.995,2.602c0.168,0.019,0.31,0.156,0.328,0.324c0.019,0.167-0.088,0.313-0.253,0.344l-28.925,5.43l-13.612,20.228l32.353,2.541
		c0.242,0.019,0.441,0.215,0.459,0.463c0.018,0.246-0.146,0.469-0.388,0.523l-41.083,9.341l-26.399,39.229
		c34.053,20.813,77.428,14.762,102.14-17.791C250.23,188.462,239.061,91.723,229.519,84.48z"/>
</g>
</svg>
