<?xml version="1.0" encoding="utf-8"?>
<!-- Generator: Adobe Illustrator 16.0.0, SVG Export Plug-In . SVG Version: 6.00 Build 0)  -->
<!DOCTYPE svg PUBLIC "-//W3C//DTD SVG 1.1//EN" "http://www.w3.org/Graphics/SVG/1.1/DTD/svg11.dtd">
<svg version="1.1" id="Layer_1" xmlns="http://www.w3.org/2000/svg" xmlns:xlink="http://www.w3.org/1999/xlink" x="0px" y="0px"
	 width="330px" height="330px" viewBox="0 0 330 330" enable-background="new 0 0 330 330" xml:space="preserve">
<filter  id="shadow">
	<feOffset  dy="0" dx="0" in="SourceAlpha" result="offOut"></feOffset>
	<feGaussianBlur  in="offOut" stdDeviation="7" result="blurOut"></feGaussianBlur>
	<feBlend  mode="normal" in="SourceGraphic" in2="blurOut"></feBlend>
</filter>
<g id="Layer_1_1_">
	<g id="Layer_2">
		<circle fill="#CA6B6A" cx="165" cy="165" r="165"/>
	</g>
</g>
<g filter="url(#shadow)">
	<path fill="#FFFFFF" d="M260.491,222.771c0,0-0.373,0.496-1.094,1.457c-0.361,0.479-0.811,1.076-1.343,1.785
		c-0.514,0.723-1.178,1.506-1.95,2.395c-0.772,0.882-1.615,1.918-2.604,2.982c-1.013,1.041-2.118,2.18-3.313,3.41
		c-1.261,1.159-2.601,2.448-4.091,3.764c-0.769,0.629-1.56,1.278-2.375,1.947c-0.813,0.68-1.664,1.363-2.575,2.014
		c-7.147,5.395-16.801,11.088-29.104,15.035c-6.131,2.019-12.918,3.479-20.221,4.342c-7.308,0.854-15.137,0.881-23.299,0.06
		c-8.167-0.817-16.62-2.762-25.077-5.8c-8.458-3.031-16.905-7.254-24.86-12.766c-0.992-0.69-2.002-1.369-2.988-2.086
		c-0.967-0.744-1.937-1.488-2.909-2.236l-1.457-1.137l-1.409-1.199c-0.938-0.809-1.878-1.619-2.821-2.434
		c-0.903-0.846-1.81-1.693-2.718-2.546l-0.595-0.559c-0.208-0.2-0.371-0.333-0.636-0.619l-1.462-1.537
		c-2.03-2.116-3.636-4.075-5.344-6.144c-3.32-4.162-6.322-8.682-8.948-13.482c-2.616-4.805-4.931-9.87-6.685-15.189
		c-3.585-10.61-5.36-22.072-5.075-33.694c0.32-11.616,2.759-23.376,7.317-34.446c4.54-11.065,11.203-21.445,19.582-30.182
		c3.923-4.199,9.269-8.847,14.502-12.277c5.35-3.529,11.112-6.454,17.124-8.696c12.034-4.475,25.07-6.039,37.726-4.703
		c12.654,1.35,24.966,5.62,35.556,12.381c5.294,3.375,10.172,7.321,14.515,11.695l0.407,0.408l0.204,0.205
		c-0.533-0.562,0.961,0.998,0.854,0.896l0.582,0.68l1.162,1.358l1.16,1.356l0.291,0.339c0.105,0.13,0.166,0.182,0.325,0.398
		l0.832,1.104c1.104,1.477,2.179,2.973,3.222,4.481c0.567,0.778,0.922,1.452,1.332,2.157l1.195,2.106
		c1.68,2.758,2.821,5.781,4.098,8.702c0.543,1.5,1.017,3.022,1.504,4.533c0.236,0.757,0.482,1.511,0.703,2.271l0.522,2.313
		c0.328,1.543,0.698,3.075,0.95,4.621c0.201,1.556,0.379,3.111,0.548,4.66c0.216,1.545,0.2,3.104,0.241,4.652l0.035,2.319
		c0.02,0.772,0.013,1.542-0.061,2.31c-0.119,1.534-0.236,3.064-0.355,4.592c-0.045,0.763-0.162,1.519-0.297,2.271l-0.395,2.253
		c-0.444,3.012-1.357,5.912-2.176,8.798c-1.948,5.679-4.364,11.157-7.67,15.994c-1.506,2.508-3.385,4.728-5.176,6.966l-0.678,0.833
		c-0.236,0.269-0.492,0.519-0.738,0.775l-1.492,1.526l-1.494,1.508l-0.749,0.748l-0.374,0.371c0.06-0.05-1.213,1.146-0.748,0.698
		l-0.158,0.127c-0.842,0.679-1.682,1.354-2.518,2.026l-0.313,0.253c-0.11,0.088-0.183,0.151-0.379,0.293l-1.021,0.739l-2.056,1.438
		l-2.069,1.388l-1.926,1.045l-1.925,1.017c-0.639,0.338-1.276,0.671-1.95,0.933c-10.531,4.719-21.96,5.875-32.256,3.955
		c-5.174-0.859-10.045-2.654-14.509-4.854c-1.094-0.596-2.183-1.188-3.267-1.776c-1.058-0.625-2.055-1.346-3.064-2.018l-1.493-1.027
		c-0.486-0.354-0.938-0.753-1.401-1.132c-0.907-0.773-1.81-1.544-2.708-2.311c-0.848-0.813-1.646-1.67-2.45-2.5l-1.189-1.252
		l-0.672-0.717l-0.204-0.271l-0.408-0.541l-0.812-1.077l-0.405-0.536l-0.206-0.275l-0.285-0.41
		c-0.755-1.098-1.482-2.202-2.176-3.305c-2.365-4.138-3.947-8.328-4.852-12.595c-0.873-4.258-1.005-8.467-0.675-12.455
		c0.348-4,1.369-7.757,2.69-11.198c0.775-1.686,1.441-3.361,2.388-4.868c0.454-0.76,0.861-1.531,1.348-2.245
		c0.504-0.699,1.003-1.393,1.498-2.08c0.474-0.695,1.021-1.326,1.576-1.937c0.547-0.61,1.089-1.214,1.626-1.813
		c0.576-0.559,1.177-1.081,1.755-1.606l0.867-0.774l0.43-0.381c-0.009,0.009,0.475-0.438,0.317-0.281l0.1-0.07l0.2-0.141
		c0.532-0.374,1.058-0.744,1.579-1.11c0.221-0.166,0.607-0.405,0.956-0.622c0.351-0.215,0.7-0.429,1.048-0.642
		c1.404-0.915,2.703-1.394,3.991-2.005c2.642-1,5.215-1.705,7.697-1.932c2.46-0.326,4.795-0.218,6.929-0.025
		c1.066,0.165,2.088,0.344,3.059,0.551c0.963,0.275,1.887,0.507,2.753,0.798c3.483,1.159,6.067,2.87,7.962,4.355
		c0.466,0.38,0.904,0.737,1.316,1.072c0.385,0.366,0.724,0.729,1.043,1.051c0.314,0.323,0.604,0.621,0.869,0.893
		c0.248,0.285,0.455,0.563,0.646,0.799c0.748,0.946,1.134,1.434,1.134,1.434s-0.521-0.333-1.531-0.977
		c-0.254-0.156-0.524-0.343-0.843-0.523c-0.327-0.164-0.687-0.343-1.075-0.538c-0.385-0.191-0.799-0.397-1.242-0.618
		c-0.461-0.18-0.951-0.372-1.473-0.576c-2.078-0.761-4.701-1.489-7.77-1.599c-3.049-0.125-6.529,0.319-9.935,1.728
		c-1.725,0.628-3.346,1.689-4.943,2.766c-0.724,0.631-1.609,1.232-2.136,1.877l-0.455,0.463c-0.155,0.155-0.289,0.27-0.52,0.549
		c-0.417,0.481-0.838,0.968-1.263,1.459l-0.16,0.185l-0.08,0.093c-0.217,0.212,0.203-0.186,0.142-0.114l-0.224,0.342l-0.45,0.684
		c-0.297,0.458-0.614,0.901-0.902,1.367c-0.258,0.483-0.519,0.97-0.782,1.462c-0.273,0.479-0.537,0.965-0.728,1.499
		c-0.214,0.512-0.43,1.029-0.647,1.55c-0.205,0.523-0.331,1.086-0.506,1.623c-0.39,1.061-0.511,2.229-0.765,3.34
		c-0.078,0.572-0.106,1.158-0.169,1.732l-0.085,0.863l0.001,0.879c0.01,0.586-0.045,1.164,0.002,1.752
		c0.051,0.583,0.103,1.169,0.154,1.76c0.329,2.341,0.91,4.667,1.885,6.852c1.016,2.143,2.313,4.244,3.821,5.974
		c0.346,0.313,0.666,0.632,0.962,0.965l0.11,0.125l0.239,0.224l0.493,0.455l0.99,0.918l0.497,0.459l0.249,0.23
		c0.129,0.135-0.666-0.723-0.281-0.327l0.104,0.07l0.826,0.569c0.552,0.377,1.079,0.781,1.632,1.147
		c0.581,0.321,1.164,0.646,1.75,0.97c0.293,0.156,0.563,0.35,0.863,0.49l0.92,0.398c0.615,0.258,1.198,0.57,1.824,0.803
		c0.632,0.207,1.267,0.415,1.904,0.624c2.575,0.69,5.206,1.287,7.922,1.231c5.39,0.127,10.812-1.399,15.325-4.236
		c0.3-0.146,0.564-0.355,0.828-0.563l0.807-0.598l0.811-0.575c0.164-0.177,0.332-0.345,0.502-0.504
		c0.17-0.16,0.345-0.313,0.522-0.457l0.272-0.211c0.025-0.008,0.146-0.135,0.234-0.225l0.282-0.287
		c0.754-0.764,1.511-1.531,2.271-2.301l0.143-0.144c0.564-0.541-0.604,0.571-0.457,0.417l0.169-0.229l0.339-0.457l0.686-0.904
		l0.693-0.893c0.115-0.148,0.238-0.291,0.348-0.444l0.291-0.485c0.767-1.299,1.668-2.501,2.248-3.901
		c0.311-0.684,0.711-1.318,0.976-2.023c0.251-0.711,0.512-1.415,0.783-2.113c0.319-0.678,0.472-1.424,0.671-2.149
		c0.177-0.732,0.449-1.432,0.58-2.176c0.208-1.5,0.598-2.955,0.613-4.481l0.095-1.127c0.046-0.374,0.082-0.749,0.051-1.13
		c-0.022-0.759-0.031-1.514-0.028-2.268c-0.229-3.01-0.601-6.035-1.604-8.889l-0.307-1.085l-0.439-1.041l-0.85-2.086
		c-0.772-1.296-1.317-2.698-2.229-3.905l-0.606-0.945c-0.199-0.308-0.4-0.683-0.578-0.831c-0.359-0.4-0.688-0.814-0.992-1.25
		l-0.223-0.332c-0.006-0.032-0.166-0.184-0.252-0.279l-0.309-0.323l-1.232-1.291l-1.234-1.293l-0.618-0.647
		c-0.201-0.216,1.176,1.249,0.537,0.582l-0.12-0.104l-0.24-0.208c-2.498-2.287-5.227-4.284-8.139-5.956
		c-5.793-3.407-12.393-5.377-19.126-6.011c-6.738-0.518-13.641,0.294-19.946,2.7c-3.165,1.159-6.195,2.667-9.024,4.498
		c-2.919,1.971-5.094,3.648-7.903,6.498c-2.589,2.638-4.977,5.449-7.063,8.463c-2.087,3.014-3.875,6.213-5.421,9.521
		c-1.54,3.312-2.763,6.764-3.707,10.287c-0.947,3.521-1.61,7.123-1.908,10.748c-0.66,7.248-0.059,14.557,1.629,21.52
		c1.709,6.967,4.602,13.532,8.338,19.498c0.966,1.444,1.996,3.006,2.876,4.146l0.669,0.945c0.08,0.135,0.308,0.382,0.47,0.578
		l0.528,0.623l1.053,1.241l0.525,0.619l0.131,0.155c0.293,0.307-0.25-0.242-0.153-0.143l0.233,0.252
		c0.621,0.672,1.239,1.344,1.856,2.014l0.926,1.005l0.972,0.948c0.644,0.642,1.285,1.279,1.925,1.916
		c0.657,0.617,1.337,1.203,2,1.809c2.653,2.426,5.497,4.555,8.342,6.631c2.911,1.965,5.849,3.852,8.892,5.455
		c6.059,3.264,12.33,5.82,18.615,7.602c12.576,3.601,25.053,4.317,36.077,3.252c5.527-0.51,10.703-1.483,15.455-2.691
		c1.2-0.271,2.335-0.654,3.478-0.969c0.568-0.164,1.133-0.326,1.688-0.487c0.547-0.188,1.088-0.373,1.623-0.558
		c1.077-0.368,2.13-0.729,3.156-1.082c1.015-0.395,2.005-0.778,2.97-1.152c0.979-0.359,1.903-0.766,2.796-1.177
		c0.902-0.405,1.778-0.798,2.628-1.179c1.68-0.83,3.254-1.608,4.719-2.334c1.438-0.805,2.766-1.549,3.982-2.231
		c1.219-0.688,2.271-1.382,3.254-1.976c1.967-1.174,3.422-2.25,4.424-2.9C259.979,223.117,260.491,222.771,260.491,222.771z"/>
</g>
</svg>
