<?xml version="1.0" encoding="utf-8"?>
<!-- Generator: Adobe Illustrator 16.0.0, SVG Export Plug-In . SVG Version: 6.00 Build 0)  -->
<!DOCTYPE svg PUBLIC "-//W3C//DTD SVG 1.1//EN" "http://www.w3.org/Graphics/SVG/1.1/DTD/svg11.dtd">
<svg version="1.1" xmlns="http://www.w3.org/2000/svg" xmlns:xlink="http://www.w3.org/1999/xlink" x="0px" y="0px" width="330px"
	 height="330px" viewBox="0 0 330 330" enable-background="new 0 0 330 330" xml:space="preserve">
<defs>
	<filter id="shadow">
		<feOffset result="offOut" in="SourceAlpha" dx="0" dy="0" />
		<feGaussianBlur result="blurOut" in="offOut" stdDeviation="7" />
		<feBlend in="SourceGraphic" in2="blurOut" mode="normal" />
	</filter>
</defs>
<g id="Layer_1">
	<g id="Layer_2">
		<circle fill="#4b88b0" cx="165" cy="165" r="165"/>
	</g>
</g>
<g id="Layer_2_1_" filter="url(#shadow)">
	<path fill="#FFFFFF" d="M169.91,71.504c-1.124-1.599-2.955-2.551-4.91-2.551c-1.954,0-3.786,0.952-4.909,2.551
		c-2.516,3.581-61.614,88.098-61.614,123.021c0,36.681,29.843,66.522,66.523,66.522c36.682,0,66.523-29.842,66.523-66.522
		C231.523,159.602,172.426,75.084,169.91,71.504z M162.599,234.766c-18.634,0-33.74-14.564-33.74-32.528
		c0-6.118,1.755-11.84,4.802-16.728c-0.21,1.441-0.326,2.913-0.326,4.411c0,17.394,14.626,31.494,32.667,31.494
		c13.745,0,25.499-8.188,30.321-19.779c0.004,0.201,0.016,0.399,0.016,0.602C196.338,220.201,181.232,234.766,162.599,234.766z"/>
</g>
</svg>
