<?xml version="1.0" encoding="utf-8"?>
<!-- Generator: Adobe Illustrator 16.0.0, SVG Export Plug-In . SVG Version: 6.00 Build 0)  -->
<!DOCTYPE svg PUBLIC "-//W3C//DTD SVG 1.1//EN" "http://www.w3.org/Graphics/SVG/1.1/DTD/svg11.dtd">
<svg version="1.1" id="Layer_2" xmlns="http://www.w3.org/2000/svg" xmlns:xlink="http://www.w3.org/1999/xlink" x="0px" y="0px"
	 width="16px" height="16px" viewBox="0 0 16 16" enable-background="new 0 0 16 16" xml:space="preserve">
<g>
	<path fill="#CDCCCC" d="M15.336,9.503c-0.558,0.375-1.445,0.697-2.552,0.939c-1.336,0.293-2.988,0.468-4.785,0.468
		s-3.449-0.175-4.784-0.468c-1.106-0.241-1.993-0.564-2.551-0.939C0.341,9.287,0.125,9.054,0.041,8.809
		c0.054,0.536,0.161,1.057,0.315,1.557c0.006,0.02,0.014,0.039,0.02,0.059c0.126,0.32,0.484,0.619,1.021,0.884
		c1.337,0.66,3.79,1.104,6.604,1.104s5.267-0.444,6.604-1.104c0.538-0.266,0.897-0.565,1.021-0.887
		c0.005-0.017,0.012-0.033,0.018-0.05c0.155-0.502,0.263-1.024,0.316-1.563C15.875,9.053,15.659,9.286,15.336,9.503z"/>
	<path fill="#CDCCCC" d="M1.317,12.392C2.748,14.563,5.205,16,8,16s5.253-1.437,6.683-3.608c-0.758,0.874-3.458,1.522-6.683,1.522
		C4.775,13.914,2.075,13.266,1.317,12.392z"/>
	<path fill="#CDCCCC" d="M2.535,4.53C3.692,5.055,5.705,5.404,8,5.404c2.296,0,4.308-0.349,5.464-0.874
		c0.49-0.223,0.822-0.477,0.959-0.75c0.045-0.091,0.076-0.183,0.076-0.277c0-0.074-0.018-0.146-0.046-0.217
		c-0.092-0.126-0.181-0.254-0.279-0.374C12.706,1.134,10.485,0,8,0C5.516,0,3.295,1.133,1.828,2.91
		C1.728,3.032,1.637,3.162,1.543,3.29C1.517,3.36,1.5,3.431,1.5,3.503c0,0.094,0.031,0.186,0.077,0.277
		C1.713,4.053,2.045,4.308,2.535,4.53z"/>
	<path fill="#CDCCCC" d="M1.317,7.287C2.076,7.664,3.193,7.97,4.535,8.166C5.579,8.319,6.753,8.407,8,8.407s2.421-0.088,3.465-0.241
		c1.341-0.197,2.458-0.502,3.217-0.879c0.68-0.337,1.077-0.729,1.077-1.148c0-0.059-0.015-0.117-0.03-0.175
		c-0.007-0.025-0.013-0.05-0.02-0.075c-0.119-0.435-0.272-0.854-0.46-1.256c0.012,0.048,0.025,0.097,0.025,0.146
		c0,0.155-0.061,0.306-0.168,0.452c-0.407,0.549-1.538,1.02-3.089,1.321C10.866,6.775,9.486,6.906,8,6.906S5.133,6.775,3.982,6.551
		C2.431,6.25,1.3,5.78,0.893,5.231C0.785,5.085,0.725,4.934,0.725,4.779c0-0.048,0.014-0.096,0.024-0.143
		c-0.186,0.4-0.339,0.818-0.458,1.252C0.284,5.915,0.277,5.942,0.27,5.97C0.256,6.026,0.241,6.082,0.241,6.139
		C0.241,6.559,0.638,6.95,1.317,7.287z"/>
</g>
</svg>
