<?xml version="1.0" encoding="utf-8"?>
<!-- Generator: Adobe Illustrator 16.0.0, SVG Export Plug-In . SVG Version: 6.00 Build 0)  -->
<!DOCTYPE svg PUBLIC "-//W3C//DTD SVG 1.1//EN" "http://www.w3.org/Graphics/SVG/1.1/DTD/svg11.dtd">
<svg version="1.1" id="Layer_2" xmlns="http://www.w3.org/2000/svg" xmlns:xlink="http://www.w3.org/1999/xlink" x="0px" y="0px"
	 width="17px" height="24px" viewBox="3 4 17 24" enable-background="new 3 4 17 24" xml:space="preserve">
<g>
	<path fill="#CCCCCC" d="M12.785,17.584c3.17-0.602,5.573-3.38,5.573-6.728C18.357,7.07,15.287,4,11.501,4
		c-3.788,0-6.859,3.07-6.859,6.857c0,3.347,2.401,6.125,5.573,6.727v3.986H6.357v2.572h3.858V28h2.57v-3.857h3.857V21.57h-3.857
		V17.584z M7.215,10.857c0-2.364,1.922-4.287,4.286-4.287c2.36,0,4.284,1.922,4.284,4.287c0,2.364-1.924,4.285-4.284,4.285
		C9.137,15.143,7.215,13.221,7.215,10.857z"/>
</g>
</svg>
