<?xml version="1.0" encoding="utf-8"?>
<!-- Generator: Adobe Illustrator 16.0.0, SVG Export Plug-In . SVG Version: 6.00 Build 0)  -->
<!DOCTYPE svg PUBLIC "-//W3C//DTD SVG 1.1//EN" "http://www.w3.org/Graphics/SVG/1.1/DTD/svg11.dtd">
<svg version="1.1" id="Layer_2" xmlns="http://www.w3.org/2000/svg" xmlns:xlink="http://www.w3.org/1999/xlink" x="0px" y="0px"
	 width="16px" height="16px" viewBox="0 0 16 16" enable-background="new 0 0 16 16" xml:space="preserve">
<g>
	<path fill="#CCCCCC" d="M8,13.99c-1.493,0-2.923-0.572-4.016-1.56l1.707-0.661L1.005,8l-0.922,5.943l1.869-0.726
		C3.464,14.966,5.675,16,8,16c2.993,0,5.714-1.651,7.099-4.31l-1.783-0.928C12.279,12.753,10.241,13.99,8,13.99z"/>
	<path fill="#CCCCCC" d="M8,2.01c1.494,0,2.923,0.573,4.016,1.56L10.31,4.231L14.995,8l0.922-5.942l-1.869,0.725
		C12.535,1.035,10.326,0,8,0C4.477,0,1.406,2.259,0.36,5.621l1.919,0.598C3.063,3.702,5.361,2.01,8,2.01z"/>
</g>
</svg>
