<?xml version="1.0" encoding="utf-8"?>
<!-- Generator: Adobe Illustrator 16.0.0, SVG Export Plug-In . SVG Version: 6.00 Build 0)  -->
<!DOCTYPE svg PUBLIC "-//W3C//DTD SVG 1.1//EN" "http://www.w3.org/Graphics/SVG/1.1/DTD/svg11.dtd">
<svg version="1.1" id="Layer_2" xmlns="http://www.w3.org/2000/svg" xmlns:xlink="http://www.w3.org/1999/xlink" x="0px" y="0px"
	 width="23px" height="32px" viewBox="-3 -4 23 32" enable-background="new -3 -4 23 32" xml:space="preserve">
<g>
	<path fill="#EEF1B8" d="M9.744,4.489C9.711,0.386,8.48-2.054,7.686-3.198C6.752-2.233,5.148-0.427,3.577,2.06
		C5.216,4.234,7.57,5.039,9.744,4.489z"/>
	<path fill="#4DCAE1" d="M9.75,4.66c0-0.059-0.004-0.112-0.006-0.171C7.57,5.039,5.216,4.234,3.577,2.062
		C1.369,5.556-0.75,10.362-0.75,16c0,4.745,2.688,9.621,6.398,11.345C3.495,14.641,9.75,13.075,9.75,4.66z"/>
	<path fill="#DAE696" d="M13.344,1.933C10.959-1.802,8.5-4,8.5-4S8.183-3.712,7.686-3.198C8.48-2.054,9.711,0.387,9.744,4.491
		C11.084,4.148,12.352,3.3,13.344,1.933z"/>
	<path fill="#288AC1" d="M17.75,16c0-5.706-2.168-10.563-4.406-14.067c-0.992,1.367-2.26,2.216-3.6,2.557
		C9.746,4.548,9.75,4.602,9.75,4.66c0,8.415-6.255,9.98-4.102,22.685C6.546,27.763,7.505,28,8.5,28C13.609,28,17.75,21.892,17.75,16
		z"/>
</g>
</svg>
