<?xml version="1.0" encoding="utf-8"?>
<!-- Generator: Adobe Illustrator 16.0.0, SVG Export Plug-In . SVG Version: 6.00 Build 0)  -->
<!DOCTYPE svg PUBLIC "-//W3C//DTD SVG 1.1//EN" "http://www.w3.org/Graphics/SVG/1.1/DTD/svg11.dtd">
<svg version="1.1" id="Layer_4" xmlns="http://www.w3.org/2000/svg" xmlns:xlink="http://www.w3.org/1999/xlink" x="0px" y="0px"
	 width="20px" height="32px" viewBox="-2.5 -4 20 32" enable-background="new -2.5 -4 20 32" xml:space="preserve">
<g>
	<rect x="0.667" y="-2.666" fill="#5C5C52" width="13.333" height="25.333"/>
	<rect x="2" y="-2.666" fill="#4768B1" width="9.334" height="20"/>
	<polygon fill="#F2EC5A" points="15.334,2.667 15.334,-4 -0.333,-4 -0.333,21.334 4.667,21.334 4.667,12 2,12 2,2.667 3.334,1.334 
		3.334,-2.666 14,-2.666 14,2.667 	"/>
	<polygon fill="#F2EC5A" points="15.334,21.334 12.667,21.334 12.667,12 14,12 14,10.667 15.334,10.667 	"/>
	<rect x="12" y="22.667" fill="#5C5C52" width="1.334" height="1.333"/>
	<rect x="10" y="22.667" fill="#5C5C52" width="1.334" height="1.333"/>
	<rect x="8" y="22.667" fill="#5C5C52" width="1.334" height="1.333"/>
	<rect x="1.334" y="22.667" fill="#5C5C52" width="1.333" height="2.667"/>
	<rect x="1.5" y="25.334" fill="#50C6DC" width="1" height="2.666"/>
	<rect x="8.167" y="24" fill="#50C6DC" width="1" height="2.667"/>
	<rect x="10.167" y="24" fill="#50C6DC" width="1" height="2.667"/>
	<rect x="12.167" y="24" fill="#50C6DC" width="1" height="2.667"/>
	<g>
		<rect x="5.334" y="6.667" fill="#56C9EC" width="1.333" height="10.667"/>
	</g>
	<g>
		<polygon fill="#56C9EC" points="10.667,10.667 9.334,12 9.334,6.667 10.667,5.334 		"/>
	</g>
	<g>
		<path fill="#CDEBED" d="M7.334,1.334C8.805,1.334,10,2.529,10,4c0,1.472-1.195,2.667-2.666,2.667C5.862,6.667,4.667,5.472,4.667,4
			C4.667,2.529,5.862,1.334,7.334,1.334 M7.334,0c-2.21,0-4,1.791-4,4c0,2.21,1.79,4,4,4c2.209,0,4-1.79,4-4
			C11.334,1.791,9.543,0,7.334,0L7.334,0z"/>
	</g>
</g>
</svg>
