<?xml version="1.0" encoding="utf-8"?>
<!-- Generator: Adobe Illustrator 16.0.0, SVG Export Plug-In . SVG Version: 6.00 Build 0)  -->
<!DOCTYPE svg PUBLIC "-//W3C//DTD SVG 1.1//EN" "http://www.w3.org/Graphics/SVG/1.1/DTD/svg11.dtd">
<svg version="1.1" id="Layer_3" xmlns="http://www.w3.org/2000/svg" xmlns:xlink="http://www.w3.org/1999/xlink" x="0px" y="0px"
	 width="16px" height="16px" viewBox="0 0 16 16" enable-background="new 0 0 16 16" xml:space="preserve">
<path fill="#CCCCCC" d="M8,16c2.749,0,5.173-1.388,6.613-3.5H1.387C2.827,14.612,5.251,16,8,16z"/>
<path fill="#CCCCCC" d="M8,0C5.251,0,2.827,1.388,1.387,3.5h13.227C13.174,1.388,10.749,0,8,0z"/>
<path fill="#CCCCCC" d="M0.404,10.5h15.191c0.107-0.325,0.194-0.658,0.259-1H0.146C0.21,9.842,0.297,10.175,0.404,10.5z"/>
<path fill="#CCCCCC" d="M0.404,5.5c-0.107,0.325-0.193,0.658-0.258,1h15.709c-0.064-0.342-0.151-0.675-0.259-1H0.404z"/>
</svg>
