<?xml version="1.0" encoding="utf-8"?>
<!-- Generator: Adobe Illustrator 16.0.0, SVG Export Plug-In . SVG Version: 6.00 Build 0)  -->
<!DOCTYPE svg PUBLIC "-//W3C//DTD SVG 1.1//EN" "http://www.w3.org/Graphics/SVG/1.1/DTD/svg11.dtd">
<svg version="1.1" id="Layer_1" xmlns="http://www.w3.org/2000/svg" xmlns:xlink="http://www.w3.org/1999/xlink" x="0px" y="0px"
	 width="24px" height="24px" viewBox="0 0 24 24" enable-background="new 0 0 24 24" xml:space="preserve">
<g>
	<path fill="#CCCCCC" d="M12,8c2.206,0,4,1.794,4,4c0,2.206-1.794,4-4,4c-2.206,0-4-1.794-4-4C8,9.794,9.794,8,12,8 M12,6
		c-3.314,0-6,2.687-6,6c0,3.314,2.686,6,6,6c3.313,0,6-2.686,6-6C18,8.687,15.313,6,12,6L12,6z"/>
	<path fill="#CCCCCC" d="M11,19.931V23c0,0.553,0.448,1,1,1s1-0.447,1-1v-3.069C12.672,19.972,12.34,20,12,20
		S11.329,19.972,11,19.931z"/>
	<path fill="#CCCCCC" d="M13,4.069V1c0-0.552-0.448-1-1-1s-1,0.448-1,1v3.069C11.329,4.028,11.661,4,12,4S12.672,4.028,13,4.069z"/>
	<path fill="#CCCCCC" d="M16.901,18.314l2.17,2.171c0.391,0.391,1.023,0.391,1.414,0s0.391-1.023,0-1.414l-2.17-2.171
		c-0.203,0.262-0.418,0.516-0.658,0.756S17.162,18.111,16.901,18.314z"/>
	<path fill="#CCCCCC" d="M7.099,5.685l-2.17-2.17c-0.391-0.391-1.023-0.391-1.414,0s-0.391,1.023,0,1.414l2.17,2.17
		c0.204-0.261,0.419-0.516,0.659-0.756C6.583,6.103,6.839,5.888,7.099,5.685z"/>
	<path fill="#CCCCCC" d="M19.931,12.999L23,13c0.553,0,1-0.447,1-1s-0.447-1-1-1l-3.069-0.001c0.041,0.329,0.068,0.661,0.068,1
		S19.972,12.671,19.931,12.999z"/>
	<path fill="#CCCCCC" d="M4.069,11L1,11c-0.553,0-1.001,0.448-1,1c-0.001,0.552,0.447,1,1,1h3.069C4.028,12.671,4,12.339,4,11.999
		C3.999,11.661,4.028,11.328,4.069,11z"/>
	<path fill="#CCCCCC" d="M18.314,7.099l2.171-2.17c0.391-0.391,0.391-1.023,0-1.414c-0.391-0.391-1.023-0.391-1.414,0l-2.172,2.169
		c0.262,0.204,0.516,0.419,0.756,0.659S18.111,6.838,18.314,7.099z"/>
	<path fill="#CCCCCC" d="M5.685,16.9l-2.17,2.171c-0.391,0.391-0.391,1.024,0,1.414c0.391,0.392,1.023,0.391,1.414,0l2.17-2.171
		c-0.262-0.203-0.516-0.418-0.756-0.658C6.103,17.418,5.888,17.161,5.685,16.9z"/>
</g>
</svg>
