<?xml version="1.0" encoding="utf-8"?>
<!-- Generator: Adobe Illustrator 16.0.0, SVG Export Plug-In . SVG Version: 6.00 Build 0)  -->
<!DOCTYPE svg PUBLIC "-//W3C//DTD SVG 1.1//EN" "http://www.w3.org/Graphics/SVG/1.1/DTD/svg11.dtd">
<svg version="1.1" id="Layer_2_1_" xmlns="http://www.w3.org/2000/svg" xmlns:xlink="http://www.w3.org/1999/xlink" x="0px" y="0px"
	 width="16px" height="16px" viewBox="0 0 16 16" enable-background="new 0 0 16 16" xml:space="preserve">
<g>
	<path fill="#CCCCCC" d="M5.32,15.938c1.219-0.242,2.011-1.427,1.768-2.646L2.675,14.17C2.917,15.391,4.101,16.182,5.32,15.938z"/>
	<path fill="#CCCCCC" d="M6.737,11.528C6.07,8.163,7.685,3.196,2.972,4.133C1.752,4.376,0.47,5.198,1.226,8.998
		c0.656,3.295,1.098,3.407,1.098,3.407L6.737,11.528z"/>
</g>
<g>
	<path fill="#CCCCCC" d="M10.68,11.921c-1.219-0.242-2.011-1.427-1.769-2.646l4.414,0.877C13.083,11.373,11.899,12.164,10.68,11.921
		z"/>
	<path fill="#CCCCCC" d="M9.263,7.511c0.667-3.366-0.947-8.333,3.766-7.395c1.219,0.243,2.502,1.064,1.746,4.865
		c-0.656,3.295-1.098,3.407-1.098,3.407L9.263,7.511z"/>
</g>
</svg>
