<?xml version="1.0" encoding="utf-8"?>
<!-- Generator: Adobe Illustrator 16.0.0, SVG Export Plug-In . SVG Version: 6.00 Build 0)  -->
<!DOCTYPE svg PUBLIC "-//W3C//DTD SVG 1.1//EN" "http://www.w3.org/Graphics/SVG/1.1/DTD/svg11.dtd">
<svg version="1.1" id="Layer_2" xmlns="http://www.w3.org/2000/svg" xmlns:xlink="http://www.w3.org/1999/xlink" x="0px" y="0px"
	 width="32px" height="32px" viewBox="-4 -4 32 32" enable-background="new -4 -4 32 32" xml:space="preserve">
<g>
	<path fill="none" d="M15.647,0.649c-4.246,0-7.701,3.455-7.701,7.702c0,4.248,3.455,7.703,7.701,7.703
		c4.247,0,7.704-3.455,7.704-7.703C23.352,4.104,19.895,0.649,15.647,0.649z"/>
	<path fill="#CCCCCC" d="M15.647-3.919c-6.776,0-12.27,5.494-12.27,12.271c0,2.563,0.789,4.943,2.133,6.91L-3.25,24.02
		c-0.893,0.893-0.893,2.338-0.001,3.23c0.446,0.447,1.031,0.67,1.616,0.67s1.169-0.223,1.615-0.67l8.763-8.758
		c1.966,1.344,4.343,2.131,6.905,2.131c6.779,0,12.272-5.494,12.272-12.271C27.92,1.575,22.427-3.919,15.647-3.919z M15.647,16.055
		c-4.246,0-7.701-3.455-7.701-7.703c0-4.248,3.455-7.702,7.701-7.702c4.247,0,7.704,3.455,7.704,7.702
		C23.352,12.6,19.895,16.055,15.647,16.055z"/>
</g>
</svg>
