<?xml version="1.0" encoding="utf-8"?>
<!-- Generator: Adobe Illustrator 16.0.0, SVG Export Plug-In . SVG Version: 6.00 Build 0)  -->
<!DOCTYPE svg PUBLIC "-//W3C//DTD SVG 1.1//EN" "http://www.w3.org/Graphics/SVG/1.1/DTD/svg11.dtd">
<svg version="1.1" id="Layer_2" xmlns="http://www.w3.org/2000/svg" xmlns:xlink="http://www.w3.org/1999/xlink" x="0px" y="0px"
	 width="24px" height="24px" viewBox="4 4 24 24" enable-background="new 4 4 24 24" xml:space="preserve">
<g>
	<path fill="#CCCCCC" d="M16.617,5.867v2.572h5.127l-5.172,5.17c-1.159-0.788-2.504-1.189-3.85-1.189
		c-1.753,0-3.508,0.668-4.847,2.009c-2.679,2.677-2.679,7.021,0,9.695c1.339,1.339,3.094,2.009,4.847,2.009s3.511-0.67,4.849-2.009
		c2.366-2.363,2.635-6.026,0.818-8.697l5.172-5.171v5.127h2.572V5.867H16.617z M15.753,22.307c-0.81,0.809-1.885,1.255-3.031,1.255
		c-1.144,0-2.219-0.446-3.031-1.255c-0.81-0.809-1.254-1.887-1.254-3.031s0.445-2.219,1.254-3.031
		c0.81-0.812,1.887-1.254,3.031-1.254c1.146,0,2.222,0.445,3.031,1.254c0.812,0.813,1.256,1.887,1.256,3.031
		C17.009,20.421,16.564,21.496,15.753,22.307z"/>
</g>
</svg>
