<?xml version="1.0" encoding="utf-8"?>
<!-- Generator: Adobe Illustrator 16.0.0, SVG Export Plug-In . SVG Version: 6.00 Build 0)  -->
<!DOCTYPE svg PUBLIC "-//W3C//DTD SVG 1.1//EN" "http://www.w3.org/Graphics/SVG/1.1/DTD/svg11.dtd">
<svg version="1.1" id="Layer_2" xmlns="http://www.w3.org/2000/svg" xmlns:xlink="http://www.w3.org/1999/xlink" x="0px" y="0px"
	 width="22px" height="24px" viewBox="1 0 22 24" enable-background="new 1 0 22 24" xml:space="preserve">
<g>
	<path fill="none" d="M12.823,6.988c-0.688-1.081-1.229-2.379-1.428-4.049C10.52,3.344,9.489,3.898,8.518,4.567
		C9.5,5.2,11.032,6.124,12.823,6.988z"/>
	<path fill="none" d="M18.608,13.609c-0.404-1.221-1.356-2.103-2.532-3.127c-4.032-1.239-7.73-3.557-9.22-4.56
		C6.309,6.465,5.858,7.05,5.562,7.671C7.409,8.85,12.865,12.131,18.608,13.609z"/>
	<path fill="none" d="M11.579,17.701c0.489,0.94,0.869,2.028,1.027,3.359c0.95-0.438,2.085-1.053,3.124-1.799
		C14.643,18.923,13.189,18.414,11.579,17.701z"/>
	<path fill="none" d="M5.263,9.899c0.248,1.29,1.065,2.192,2.142,3.157c3.964,2.774,8.558,4.177,10.133,4.604
		c0.531-0.603,0.935-1.254,1.137-1.938C13.078,14.4,7.786,11.452,5.263,9.899z"/>
	<path fill="#CCCCCC" d="M17.281,8.821c-2.022-1.76-3.927-3.421-3.927-7.376v-1.453l-1.369,0.492
		C11.603,0.621,2.631,3.916,3.16,9.682c0.238,2.604,1.927,4.076,3.56,5.498c2.021,1.761,3.929,3.422,3.929,7.375v1.453l1.368-0.49
		c0.382-0.139,9.353-3.434,8.824-9.199C20.603,11.715,18.915,10.242,17.281,8.821z M12.823,6.988C11.032,6.124,9.5,5.2,8.518,4.567
		c0.971-0.669,2.001-1.224,2.877-1.628C11.594,4.609,12.135,5.907,12.823,6.988z M6.856,5.923c1.49,1.003,5.188,3.32,9.22,4.56
		c1.176,1.024,2.128,1.906,2.532,3.127C12.865,12.131,7.409,8.85,5.562,7.671C5.858,7.05,6.309,6.465,6.856,5.923z M11.579,17.701
		c1.611,0.713,3.064,1.222,4.151,1.561c-1.039,0.746-2.174,1.36-3.124,1.799C12.447,19.729,12.068,18.642,11.579,17.701z
		 M17.537,17.661c-1.575-0.428-6.168-1.83-10.133-4.604c-1.076-0.965-1.894-1.867-2.142-3.157c2.523,1.553,7.815,4.501,13.411,5.824
		C18.472,16.407,18.068,17.059,17.537,17.661z"/>
</g>
</svg>
