<?xml version="1.0" encoding="utf-8"?>
<!-- Generator: Adobe Illustrator 16.0.0, SVG Export Plug-In . SVG Version: 6.00 Build 0)  -->
<!DOCTYPE svg PUBLIC "-//W3C//DTD SVG 1.1//EN" "http://www.w3.org/Graphics/SVG/1.1/DTD/svg11.dtd">
<svg version="1.1" id="Layer_1" xmlns="http://www.w3.org/2000/svg" xmlns:xlink="http://www.w3.org/1999/xlink" x="0px" y="0px"
	 width="24px" height="24px" viewBox="0 0 24 24" enable-background="new 0 0 24 24" xml:space="preserve">
<path fill="#CCCCCC" d="M17.851,3.541C20.418,5.422,22,8.435,22,11.776C22,17.414,17.414,22,11.776,22
	c-3.341,0-6.354-1.582-8.235-4.149c0.029,0,0.058,0,0.086,0c7.843,0,14.223-6.38,14.223-14.223
	C17.851,3.599,17.851,3.57,17.851,3.541 M15.324,0.08c0.34,1.123,0.526,2.313,0.526,3.547c0,6.75-5.473,12.223-12.223,12.223
	c-1.234,0-2.424-0.187-3.547-0.526C1.601,20.344,6.26,24,11.776,24C18.526,24,24,18.526,24,11.776C24,6.26,20.344,1.601,15.324,0.08
	L15.324,0.08z"/>
</svg>
