<?xml version="1.0" encoding="utf-8"?>
<!-- Generator: Adobe Illustrator 16.0.0, SVG Export Plug-In . SVG Version: 6.00 Build 0)  -->
<!DOCTYPE svg PUBLIC "-//W3C//DTD SVG 1.1//EN" "http://www.w3.org/Graphics/SVG/1.1/DTD/svg11.dtd">
<svg version="1.1"
	 id="Layer_1" xmlns:dc="http://purl.org/dc/elements/1.1/" xmlns:cc="http://creativecommons.org/ns#" xmlns:rdf="http://www.w3.org/1999/02/22-rdf-syntax-ns#" xmlns:svg="http://www.w3.org/2000/svg"
	 xmlns="http://www.w3.org/2000/svg" xmlns:xlink="http://www.w3.org/1999/xlink" x="0px" y="0px" width="64px" height="128px"
	 viewBox="48 96 64 128" enable-background="new 48 96 64 128" xml:space="preserve">
<g id="Capa_x0020_1">
	<g id="_47817304">
		<g id="g4931">
			<path id="path4933" fill="#CDCCCC" d="M80.001,116.967c5.79,0,10.485-4.694,10.485-10.484c0-5.789-4.695-10.482-10.485-10.482
				c-5.79,0-10.484,4.694-10.484,10.482C69.517,112.272,74.211,116.967,80.001,116.967z"/>
		</g>
		<g id="g4935">
			<path id="path4937" fill="#CDCCCC" d="M91.582,119.653c7.416,0,13.491,6.012,13.491,13.43v32.511c0,2.534-1.993,4.59-4.527,4.59
				c-2.536,0-4.592-2.056-4.592-4.59V136.28H93.59v81.569c0,3.398-2.78,6.15-6.177,6.15c-3.397,0-6.151-2.753-6.151-6.15v-47.365
				h-2.521v47.365c0,3.398-2.754,6.15-6.15,6.15c-3.397,0-6.15-2.753-6.15-6.15c0-5.031-0.054-81.569-0.054-81.569h-2.337v29.313
				c0,2.534-2.056,4.59-4.591,4.59c-2.535,0-4.529-2.056-4.529-4.59v-32.511c0-7.418,6.076-13.43,13.492-13.43H91.582
				L91.582,119.653z"/>
		</g>
	</g>
</g>
</svg>
