<?xml version="1.0" encoding="utf-8"?>
<!-- Generator: Adobe Illustrator 16.0.0, SVG Export Plug-In . SVG Version: 6.00 Build 0)  -->
<!DOCTYPE svg PUBLIC "-//W3C//DTD SVG 1.1//EN" "http://www.w3.org/Graphics/SVG/1.1/DTD/svg11.dtd">
<svg version="1.1" xmlns="http://www.w3.org/2000/svg" xmlns:xlink="http://www.w3.org/1999/xlink" x="0px" y="0px" width="330px"
	 height="330px" viewBox="0 0 330 330" enable-background="new 0 0 330 330" xml:space="preserve">
<defs>
	<filter id="shadow">
		<feOffset result="offOut" in="SourceAlpha" dx="0" dy="0" />
		<feGaussianBlur result="blurOut" in="offOut" stdDeviation="7" />
		<feBlend in="SourceGraphic" in2="blurOut" mode="normal" />
	</filter>
</defs>
<g id="Layer_1">
	<g id="Layer_2">
		<circle fill="#aa354c" cx="165" cy="165" r="165"/>
	</g>
</g>
<g id="Layer_2_1_" filter="url(#shadow)">
	<path fill="#FFFFFF" d="M224.5,102c-4.047,0-7.833,1.113-11.074,3.044C210.949,95.805,202.521,89,192.501,89
		c-4.112,0-7.957,1.146-11.232,3.135c-3.389-7.544-10.963-12.801-19.769-12.801c-5.851,0-11.157,2.324-15.055,6.093
		c-3.975-4.743-9.94-7.76-16.611-7.76c-11.409,0-20.751,8.82-21.597,20.013l-0.069-0.013v30.667
		c-8.667,0-24.333,19.667-24.333,41.333c0,16.334,11.667,82.668,86,82.668c74.333,0,76.332-60.732,76.332-63.668c0-7,0-65,0-65
		C246.166,111.701,236.465,102,224.5,102z"/>
</g>
</svg>
