<?xml version="1.0" encoding="utf-8"?>
<!-- Generator: Adobe Illustrator 16.0.0, SVG Export Plug-In . SVG Version: 6.00 Build 0)  -->
<!DOCTYPE svg PUBLIC "-//W3C//DTD SVG 1.1//EN" "http://www.w3.org/Graphics/SVG/1.1/DTD/svg11.dtd">
<svg version="1.1" xmlns="http://www.w3.org/2000/svg" xmlns:xlink="http://www.w3.org/1999/xlink" x="0px" y="0px" width="330px"
	 height="330px" viewBox="0 0 330 330" enable-background="new 0 0 330 330" xml:space="preserve">
<defs>
	<filter id="shadow">
		<feOffset result="offOut" in="SourceAlpha" dx="0" dy="0" />
		<feGaussianBlur result="blurOut" in="offOut" stdDeviation="7" />
		<feBlend in="SourceGraphic" in2="blurOut" mode="normal" />
	</filter>
</defs>
<g id="Layer_1">
	<g id="Layer_2">
		<circle fill="#cb8142" cx="165" cy="165" r="165"/>
	</g>
</g>
<g id="Layer_2_1_" filter="url(#shadow)">
	<path fill="#FFFFFF" d="M188.521,120.85c26.718,5.796,46.729,29.574,46.729,58.025c0,31.033-23.804,56.502-54.148,59.148
		c29.875-14.875,16.523-45.898,16.523-45.898c-1.875,28.375-29.014,27.895-29.014,27.895c9.12-1.047,16.209-8.797,16.209-18.199
		c0-10.117-8.206-18.32-18.319-18.32c-10.119,0-18.319,8.203-18.319,18.32c0,5.877,2.769,11.109,7.074,14.463
		c0,0-11.205-5.266-13.48-23.773c0,0-2.234,8.969-2.234,13.789c0,23.998,17.453,43.451,41.45,43.451
		c13.487,0,30.48-5.207,38.45-14.85c-12.909,15.643-32.445,25.613-54.311,25.613c-38.87,0-70.381-31.512-70.381-70.383
		c0-14.184,4.195-27.386,11.413-38.436c0,0-3.746,12.973,3.92,21.973c0,0-4.667-8,21-31.834c25.667-23.833,46-40.861,29.167-72.347
		c0,0,23.833,18.847,23.833,47.847c0,10.667-2.999,16.834-2.999,23.334s4.832,12.5,10.666,12.5s10.667-6.5,10.667-12.5
		C202.417,126.16,188.521,120.85,188.521,120.85z"/>
</g>
</svg>
