<?xml version="1.0" encoding="utf-8"?>
<!-- Generator: Adobe Illustrator 16.0.0, SVG Export Plug-In . SVG Version: 6.00 Build 0)  -->
<!DOCTYPE svg PUBLIC "-//W3C//DTD SVG 1.1//EN" "http://www.w3.org/Graphics/SVG/1.1/DTD/svg11.dtd">
<svg version="1.1" id="Layer_1" xmlns="http://www.w3.org/2000/svg" xmlns:xlink="http://www.w3.org/1999/xlink" x="0px" y="0px"
	 width="330px" height="330px" viewBox="0 0 330 330" enable-background="new 0 0 330 330" xml:space="preserve">
<filter  id="shadow">
	<feOffset  result="offOut" dx="0" in="SourceAlpha" dy="0"></feOffset>
	<feGaussianBlur  result="blurOut" stdDeviation="7" in="offOut"></feGaussianBlur>
	<feBlend  in2="blurOut" in="SourceGraphic" mode="normal"></feBlend>
</filter>
<g id="Layer_1_1_">
	<g id="Layer_2">
		<circle fill="#4E5797" cx="165" cy="165" r="165"/>
	</g>
</g>
<g id="Layer_2_1_" filter="url(#shadow)">
	<path fill="#FFFFFF" d="M233.016,222.564c11.85-13.269,22.151-37.604,22.151-58.564c0-49.798-40.369-90.167-90.167-90.167
		S74.833,114.202,74.833,164s47.369,92.167,97.167,92.167c62.33,0,72.5-7.667,74.602-16.728
		C248.307,232.088,226.631,229.715,233.016,222.564z M137.451,168.235c-9.32,0-16.876-7.555-16.876-16.876
		c0-5.944,3.081-11.159,7.726-14.167c2.751,8.858,11.012,15.292,20.774,15.292c1.806,0,3.55-0.245,5.227-0.659
		C154.054,160.929,146.613,168.235,137.451,168.235z M192.549,168.234c-9.161,0-16.603-7.307-16.852-16.408
		c1.679,0.413,3.422,0.658,5.226,0.658c9.763,0,18.024-6.433,20.776-15.292c4.643,3.007,7.725,8.223,7.725,14.168
		C209.424,160.68,201.869,168.234,192.549,168.234z"/>
</g>
</svg>
