<?xml version="1.0" encoding="utf-8"?>
<!-- Generator: Adobe Illustrator 16.0.0, SVG Export Plug-In . SVG Version: 6.00 Build 0)  -->
<!DOCTYPE svg PUBLIC "-//W3C//DTD SVG 1.1//EN" "http://www.w3.org/Graphics/SVG/1.1/DTD/svg11.dtd">
<svg version="1.1" id="Layer_2_2_" xmlns="http://www.w3.org/2000/svg" xmlns:xlink="http://www.w3.org/1999/xlink" x="0px" y="0px"
	 width="330px" height="330px" viewBox="0 0 330 330" enable-background="new 0 0 330 330" xml:space="preserve">
<filter  id="shadow">
	<feOffset  dy="0" dx="0" in="SourceAlpha" result="offOut"></feOffset>
	<feGaussianBlur  in="offOut" stdDeviation="7" result="blurOut"></feGaussianBlur>
	<feBlend  in="SourceGraphic" in2="blurOut" mode="normal"></feBlend>
</filter>
<g id="Layer_1_1_">
	<g id="Layer_2">
		<circle fill="#4E5797" cx="165" cy="165" r="165"/>
	</g>
</g>
<path filter="url(#shadow)" fill="#FFFFFF" d="M165,56.877C165,56.877,165,56.877,165,56.877c-41.045,0-75.075,29.977-81.424,69.229
	c-0.699,4.322-1.076,8.751-1.076,13.271c0,0.014,0.001,0.028,0.001,0.042c0.025,73.005,63.337,133.704,129.161,133.704
	c0-83.623,35.838-84.623,35.838-133.745c0,0,0-0.001,0-0.001s0,0,0,0v0C247.5,93.813,210.564,56.877,165,56.877z M140.334,146.713
	c-10.596,2.108-20.896-4.774-23.004-15.37c-1.734-8.725,2.632-17.236,10.142-21.151c-0.159,1.808-0.082,3.667,0.291,5.538
	c2.109,10.596,12.407,17.478,23.004,15.37c1.87-0.372,3.616-1.011,5.229-1.852C155.25,137.686,149.058,144.978,140.334,146.713z
	 M212.67,131.343c-2.109,10.596-12.407,17.478-23.004,15.37c-8.726-1.735-14.918-9.028-15.661-17.465
	c1.61,0.84,3.356,1.479,5.229,1.851c10.596,2.108,20.895-4.774,23.001-15.369c0.373-1.871,0.45-3.729,0.293-5.539
	C210.038,114.106,214.404,122.617,212.67,131.343z"/>
</svg>
