<?xml version="1.0" encoding="utf-8"?>
<!-- Generator: Adobe Illustrator 16.0.0, SVG Export Plug-In . SVG Version: 6.00 Build 0)  -->
<!DOCTYPE svg PUBLIC "-//W3C//DTD SVG 1.1//EN" "http://www.w3.org/Graphics/SVG/1.1/DTD/svg11.dtd">
<svg version="1.1" id="Layer_2_2_" xmlns="http://www.w3.org/2000/svg" xmlns:xlink="http://www.w3.org/1999/xlink" x="0px" y="0px"
	 width="330px" height="330px" viewBox="0 0 330 330" enable-background="new 0 0 330 330" xml:space="preserve">
<filter  id="shadow">
	<feOffset  dy="0" dx="0" in="SourceAlpha" result="offOut"></feOffset>
	<feGaussianBlur  in="offOut" stdDeviation="7" result="blurOut"></feGaussianBlur>
	<feBlend  in="SourceGraphic" in2="blurOut" mode="normal"></feBlend>
</filter>
<g id="Layer_1_1_">
	<g id="Layer_2">
		<circle fill="#944EA6" cx="165" cy="165" r="165"/>
	</g>
</g>
<g>
	<path fill="none" d="M207,155.009c0-23.159-18.842-42-42-42c-23.159,0-42,18.841-42,42c0,23.159,18.841,42,42,42
		C188.158,197.009,207,178.168,207,155.009z"/>
	<path filter="url(#shadow)" fill="#FFFFFF" d="M248,155.009c0-45.766-37.234-83-83-83c-45.766,0-83,37.234-83,83c0,21.176,7.991,41.331,22.5,56.782v25.7
		c0,11.304,9.196,20.5,20.5,20.5c9.754,0,17.939-6.849,20-15.989c2.061,9.141,10.246,15.989,20,15.989
		c9.754,0,17.939-6.849,20-15.989c2.061,9.141,10.246,15.989,20,15.989c11.304,0,20.5-9.196,20.5-20.5v-25.7
		C240.009,196.34,248,176.185,248,155.009z M123,155.009c0-23.159,18.841-42,42-42c23.158,0,42,18.841,42,42
		c0,23.159-18.842,42-42,42C141.841,197.009,123,178.168,123,155.009z"/>
</g>
</svg>
