<?xml version="1.0" encoding="utf-8"?>
<!-- Generator: Adobe Illustrator 16.0.0, SVG Export Plug-In . SVG Version: 6.00 Build 0)  -->
<!DOCTYPE svg PUBLIC "-//W3C//DTD SVG 1.1//EN" "http://www.w3.org/Graphics/SVG/1.1/DTD/svg11.dtd">
<svg version="1.1" id="Layer_2_2_" xmlns="http://www.w3.org/2000/svg" xmlns:xlink="http://www.w3.org/1999/xlink" x="0px" y="0px"
	 width="330px" height="330px" viewBox="0 0 330 330" enable-background="new 0 0 330 330" xml:space="preserve">
<defs>
	<filter id="shadow">
		<feOffset result="offOut" in="SourceAlpha" dx="0" dy="0" />
		<feGaussianBlur result="blurOut" in="offOut" stdDeviation="7" />
		<feBlend in="SourceGraphic" in2="blurOut" mode="normal" />
	</filter>
</defs>
<g id="Layer_1_1_">
	<g id="Layer_2">
		<circle fill="#CA6B6A" cx="165" cy="165" r="165"/>
	</g>
</g>
<g filter="url(#shadow)">
	<path fill="#FFFFFF" d="M243.5,224.833c0,0-0.093,0.144-0.276,0.427c-0.18,0.286-0.449,0.705-0.856,1.243
		c-0.802,1.079-2.044,2.651-3.894,4.498c-1.838,1.854-4.23,4.034-7.262,6.344c-3.018,2.328-6.66,4.807-10.983,7.236
		c-4.318,2.434-9.326,4.801-15.045,6.859c-5.718,2.044-12.162,3.762-19.279,4.719c-7.109,1.048-14.888,1.151-23.075,0.301
		c-2.032-0.282-4.12-0.493-6.194-0.905c-1.066-0.196-2.038-0.358-3.198-0.619l-1.42-0.302l-1.666-0.41
		c-4.285-1.072-8.517-2.436-12.797-4.134c-2.13-0.856-4.261-1.791-6.383-2.812c-2.115-1.034-4.209-2.174-6.294-3.388
		c-4.171-2.427-8.257-5.234-12.214-8.408c-7.903-6.344-15.183-14.356-20.946-23.943c-5.768-9.556-9.925-20.753-11.574-32.622
		c-1.729-11.862-0.907-24.254,1.941-36.023c0.171-0.74,0.373-1.466,0.56-2.201l0.144-0.55l0.072-0.275
		c-0.087,0.258,0.2-0.666,0.194-0.649l0.269-0.918l0.538-1.839l0.276-0.936l0.413-1.204l0.843-2.409l0.431-1.193l0.438-1.096
		c0.602-1.457,1.162-2.932,1.854-4.365c2.628-5.781,5.863-11.42,9.753-16.712c3.902-5.277,8.401-10.252,13.524-14.645
		c5.123-4.388,10.813-8.23,16.917-11.386c12.222-6.282,26.173-9.585,39.974-9.489c6.897,0.04,13.756,0.842,20.373,2.377
		c1.666,0.354,3.296,0.8,4.92,1.264l1.221,0.343l0.305,0.086c0.314,0.097-0.272-0.096,0.781,0.24l0.482,0.16l1.929,0.64l0.492,0.165
		l0.716,0.267l1.428,0.543c0.92,0.363,1.972,0.749,2.744,1.112c1.657,0.733,3.313,1.47,4.913,2.332
		c12.905,6.676,23.897,17.021,31.198,29.433c7.389,12.359,11.18,26.735,10.971,40.941c-0.143,7.096-1.176,14.145-3.189,20.82
		l-0.376,1.25l-0.19,0.624c-0.001,0.013-0.342,1.073-0.237,0.731l-0.084,0.233l-0.675,1.861c-0.356,0.927-0.769,1.953-1.167,2.915
		l-0.304,0.723l-0.293,0.629l-0.592,1.254c-1.605,3.326-3.481,6.514-5.601,9.511c-4.286,5.964-9.527,11.134-15.385,15.267
		c-5.872,4.114-12.346,7.213-19.077,9.153c-6.724,1.965-13.708,2.767-20.538,2.44c-3.415-0.147-6.797-0.568-10.081-1.283
		c-0.825-0.163-1.641-0.353-2.447-0.573c-0.807-0.218-1.621-0.406-2.412-0.659l-2.371-0.751l-0.682-0.222l-0.215-0.083l-0.429-0.166
		l-0.857-0.331c-3.713-1.426-6.669-2.981-9.644-4.874c-2.926-1.894-5.638-4.063-8.087-6.445c-4.907-4.764-8.75-10.385-11.361-16.387
		c-5.306-11.986-5.54-25.508-1.558-36.726l0.179-0.527c-0.063,0.204,0.194-0.576,0.189-0.562l0.079-0.19l0.314-0.759l0.421-1.005
		l0.546-1.251c0.19-0.441,0.361-0.757,0.54-1.115l0.537-1.046c0.376-0.687,0.77-1.363,1.166-2.032
		c1.63-2.655,3.535-5.092,5.642-7.261c4.215-4.343,9.23-7.623,14.542-9.624c5.299-2.03,10.849-2.878,16.165-2.635
		c2.659,0.119,5.258,0.508,7.743,1.13c1.241,0.312,2.458,0.676,3.633,1.113l0.441,0.158c-0.143-0.042,0.448,0.147,0.441,0.153
		l0.161,0.07l0.644,0.282l0.894,0.393l1.029,0.471c4.73,2.354,8.675,5.747,11.535,9.646c2.892,3.882,4.708,8.255,5.513,12.597
		c0.826,4.341,0.635,8.653-0.3,12.538c-0.232,0.973-0.514,1.918-0.831,2.836c-0.182,0.49-0.363,0.977-0.543,1.462
		c-0.183,0.399-0.364,0.797-0.546,1.192l-0.364,0.759l-0.358,0.654c-0.233,0.435-0.499,0.85-0.757,1.262
		c-0.526,0.82-1.097,1.597-1.701,2.325c-2.422,2.919-5.371,5.056-8.408,6.414c-3.034,1.381-6.173,1.955-9.077,1.959
		c-2.913,0.007-5.6-0.58-7.913-1.489l-0.431-0.171c-0.069-0.025,0.003-0.004-0.183-0.066l-0.089-0.043l-0.177-0.086
		c-0.266-0.132-0.53-0.262-0.792-0.391c-0.625-0.311-1.101-0.601-1.609-0.938c-0.992-0.655-1.87-1.386-2.635-2.153
		c-3.083-3.097-4.251-6.632-4.563-9.351c-0.318-2.763,0.185-4.804,0.582-6.084c0.205-0.646,0.399-1.115,0.537-1.425
		c0.139-0.308,0.209-0.464,0.209-0.464s-0.021,0.17-0.062,0.504c-0.04,0.333-0.085,0.831-0.089,1.481
		c-0.017,1.292,0.169,3.234,1.065,5.428c0.897,2.168,2.653,4.578,5.353,6.135c0.671,0.386,1.396,0.712,2.163,0.962
		c0.366,0.124,0.81,0.247,1.14,0.302c0.22,0.043,0.441,0.087,0.664,0.132l0.193,0.037l0.097,0.02
		c-0.122-0.044,0.013-0.007,0.007-0.014l0.328,0.042c1.75,0.227,3.603,0.148,5.413-0.323c3.604-0.921,7.091-3.446,8.788-7.033
		c0.214-0.443,0.399-0.9,0.557-1.368c0.072-0.237,0.157-0.466,0.213-0.709l0.095-0.355l0.042-0.276
		c0.012-0.096,0.123-0.579,0.2-0.92l0.031-0.138c-0.086,0.257-0.017,0.012-0.032,0.043l0.027-0.206l0.056-0.41
		c0.063-0.548,0.104-1.099,0.112-1.65c0.037-2.204-0.376-4.425-1.273-6.466c-0.902-2.033-2.208-3.907-3.871-5.375
		c-1.647-1.48-3.651-2.521-5.75-3.051l-0.266-0.037c-0.088-0.015-0.128-0.023-0.416-0.092l-0.684-0.163l-0.172-0.041
		c-0.117-0.034,0.36,0.129,0.104,0.054l-0.235-0.031c-0.625-0.094-1.25-0.157-1.873-0.202c-1.248-0.081-2.498-0.036-3.729,0.137
		c-2.462,0.342-4.855,1.202-6.972,2.511c-2.11,1.314-3.966,3.02-5.334,5.035c-0.688,1.003-1.26,2.074-1.707,3.192l-0.308,0.851
		c-0.069,0.27-0.209,0.628-0.236,0.813c-0.013,0.091-0.029,0.181-0.049,0.268l-0.136,0.531l-0.206,0.795l-0.052,0.199
		c-0.044,0.146,0.174-0.503,0.073-0.168l-0.042,0.264c-1.02,5.579,0.027,11.354,2.935,16.141c1.457,2.377,3.339,4.479,5.524,6.128
		c1.093,0.824,2.262,1.535,3.486,2.123c1.176,0.59,2.641,1.118,3.535,1.331l0.884,0.251l0.442,0.126l0.221,0.063
		c-0.728-0.237-0.116-0.05-0.24-0.095l1.176,0.239c0.39,0.09,0.79,0.12,1.182,0.189c0.392,0.071,0.786,0.118,1.183,0.147
		c1.575,0.181,3.157,0.238,4.732,0.147c3.152-0.133,6.268-0.834,9.227-1.948c5.921-2.261,11.079-6.486,14.354-11.799
		c0.819-1.33,1.53-2.724,2.129-4.172l0.221-0.545l0.113-0.271l0.06-0.194c0.08-0.265,0.155-0.463,0.271-0.767l0.582-1.893
		l0.072-0.237c0.16-0.498-0.132,0.406-0.092,0.259l0.077-0.331l0.156-0.659c0.879-3.503,1.239-7.085,1.166-10.655
		c-0.14-3.565-0.627-7.137-1.695-10.569c-0.495-1.725-1.153-3.404-1.895-5.041c-0.705-1.656-1.602-3.224-2.523-4.766
		c-3.795-6.128-9.235-11.16-15.602-14.415c-0.787-0.425-1.606-0.791-2.424-1.163c-0.45-0.226-0.685-0.276-1.019-0.424l-0.464-0.198
		l-0.231-0.104l-0.47-0.16l-1.925-0.65l-0.481-0.163c0.892,0.287,0.142,0.05,0.293,0.101l-0.184-0.051l-0.735-0.207
		c-0.979-0.286-1.957-0.57-2.942-0.774c-3.93-0.915-7.866-1.461-11.766-1.556c-7.79-0.149-15.406,1.394-22.297,4.616
		c-6.88,3.221-13.074,8.008-18.013,14.041c-2.482,3.001-4.694,6.278-6.562,9.785c-0.501,0.856-0.894,1.778-1.343,2.667l-0.334,0.669
		l-0.267,0.601l-0.534,1.182l-0.275,0.589l-0.332,0.883l-0.668,1.796l-0.334,0.897c-0.058,0.165,0.188-0.602,0.056-0.192
		l-0.063,0.183l-0.125,0.367c-0.163,0.489-0.344,0.976-0.494,1.465c-2.532,7.819-3.704,15.659-3.38,23.268
		c0.17,3.802,0.676,7.551,1.552,11.202c0.884,3.646,2.095,7.204,3.621,10.625c1.541,3.412,3.381,6.688,5.462,9.797
		c2.106,3.091,4.444,6.016,6.961,8.75c2.532,2.719,5.245,5.243,8.106,7.517c2.86,2.275,5.843,4.329,8.878,6.202
		c3.04,1.839,6.201,3.471,9.31,4.826l1.103,0.483l1.351,0.527c0.682,0.287,1.572,0.566,2.339,0.865
		c1.582,0.63,3.195,1.072,4.778,1.601c6.386,1.851,12.731,2.844,18.815,3.198c6.091,0.39,11.89-0.021,17.274-0.666
		c5.374-0.722,10.303-1.847,14.729-3.079c4.404-1.289,8.295-2.718,11.628-4.121c3.321-1.426,6.098-2.812,8.283-4.059
		c2.178-1.255,3.807-2.331,4.845-3.12c0.529-0.385,0.915-0.714,1.169-0.935C243.369,224.944,243.5,224.833,243.5,224.833z"/>
</g>
</svg>
