<?xml version="1.0" encoding="utf-8"?>
<!-- Generator: Adobe Illustrator 16.0.0, SVG Export Plug-In . SVG Version: 6.00 Build 0)  -->
<!DOCTYPE svg PUBLIC "-//W3C//DTD SVG 1.1//EN" "http://www.w3.org/Graphics/SVG/1.1/DTD/svg11.dtd">
<svg version="1.1" id="Layer_1" xmlns="http://www.w3.org/2000/svg" xmlns:xlink="http://www.w3.org/1999/xlink" x="0px" y="0px"
	 width="330px" height="330px" viewBox="0 0 330 330" enable-background="new 0 0 330 330" xml:space="preserve">
<g id="Layer_1_1_">
	<g>
		<g id="Layer_2_8_">
			<g>
				<path fill="#666666" d="M165,13c40.601,0,78.771,15.811,107.48,44.52C301.189,86.229,317,124.399,317,165
					s-15.811,78.771-44.52,107.48S205.601,317,165,317s-78.771-15.811-107.48-44.52C28.811,243.771,13,205.601,13,165
					S28.811,86.229,57.52,57.52C86.229,28.811,124.399,13,165,13 M165,0C73.873,0,0,73.873,0,165s73.873,165,165,165
					s165-73.873,165-165S256.127,0,165,0L165,0z"/>
			</g>
		</g>
	</g>
</g>
<g>
	<g>
		<path fill="#CCCCCC" d="M240.938,115.96c-1.53-19.726-11.484-34.163-29.176-42.167c-29.011-13.125-58.817-13.598-87.844-0.315
			c-22.171,10.144-33.177,28.734-35.025,53.418c19.154,0,37.78,0,56.291,0c3.161-18.584,11.16-24.779,26.354-20.613
			c6.064,1.66,10.944,4.947,11.978,11.9c1.067,7.146-0.749,13.008-7.491,16.581c-5.528,2.931-11.181,5.635-16.685,8.613
			c-17.252,9.339-26.888,28.856-24.041,48.942c17.857,0,35.766,0,54.863,0c-0.58-14.016,6.117-22.951,18.131-28.651
			c4.647-2.202,8.914-5.246,13.244-8.072C235.857,146.253,242.254,132.982,240.938,115.96z"/>
		<path fill="#CCCCCC" d="M134.801,266.27c18.409,0,36.442,0,54.932,0c0-17.367,0-34.322,0-51.739c-18.43,0-36.464,0-54.932,0
			C134.801,231.886,134.801,248.848,134.801,266.27z"/>
	</g>
</g>
</svg>
